<?xml version="1.0" encoding="UTF-8" standalone="no"?>
<!DOCTYPE svg PUBLIC "-//W3C//DTD SVG 1.1//EN"
 "http://www.w3.org/Graphics/SVG/1.1/DTD/svg11.dtd">
<!-- Generated by graphviz version 12.2.1 (20241206.2353)
 -->
<!-- Title: G Pages: 1 -->
<svg width="1610pt" height="286pt"
 viewBox="0.00 0.00 1610.45 285.80" xmlns="http://www.w3.org/2000/svg" xmlns:xlink="http://www.w3.org/1999/xlink">
<g id="graph0" class="graph" transform="scale(1 1) rotate(0) translate(14.4 271.4)">
<title>G</title>
<polygon fill="white" stroke="none" points="-14.4,14.4 -14.4,-271.4 1596.05,-271.4 1596.05,14.4 -14.4,14.4"/>
<!-- user -->
<g id="node1" class="node">
<title>user</title>
<path fill="#f8fafc" stroke="#334155" d="M344.69,-169C344.69,-169 281.66,-169 281.66,-169 275.66,-169 269.66,-163 269.66,-157 269.66,-157 269.66,-145 269.66,-145 269.66,-139 275.66,-133 281.66,-133 281.66,-133 344.69,-133 344.69,-133 350.69,-133 356.69,-139 356.69,-145 356.69,-145 356.69,-157 356.69,-157 356.69,-163 350.69,-169 344.69,-169"/>
<text text-anchor="middle" x="313.17" y="-145.97" font-family="Helvetica,sans-Serif" font-size="12.00">Browser user</text>
</g>
<!-- frontend -->
<g id="node2" class="node">
<title>frontend</title>
<path fill="#e2e8f0" stroke="#334155" d="M610.72,-169.51C610.72,-169.51 530.44,-169.51 530.44,-169.51 524.44,-169.51 518.44,-163.51 518.44,-157.51 518.44,-157.51 518.44,-144.49 518.44,-144.49 518.44,-138.49 524.44,-132.49 530.44,-132.49 530.44,-132.49 610.72,-132.49 610.72,-132.49 616.72,-132.49 622.72,-138.49 622.72,-144.49 622.72,-144.49 622.72,-157.51 622.72,-157.51 622.72,-163.51 616.72,-169.51 610.72,-169.51"/>
<text text-anchor="middle" x="570.58" y="-152.35" font-family="Helvetica,sans-Serif" font-size="12.00">Next.js frontend</text>
<text text-anchor="middle" x="570.58" y="-139.6" font-family="Helvetica,sans-Serif" font-size="12.00">trashuq&#45;frontend</text>
</g>
<!-- user&#45;&gt;frontend -->
<g id="edge1" class="edge">
<title>user&#45;&gt;frontend</title>
<path fill="none" stroke="#475569" d="M357.13,-151C357.13,-151 508.85,-151 508.85,-151"/>
<polygon fill="#475569" stroke="#475569" points="508.85,-153.8 516.85,-151 508.85,-148.2 508.85,-153.8"/>
<text text-anchor="middle" x="446.56" y="-152" font-family="Helvetica,sans-Serif" font-size="10.00">HTTP :3000</text>
</g>
<!-- backend -->
<g id="node3" class="node">
<title>backend</title>
<path fill="#dbeafe" stroke="#334155" d="M1311.87,-156.51C1311.87,-156.51 1196.34,-156.51 1196.34,-156.51 1190.34,-156.51 1184.34,-150.51 1184.34,-144.51 1184.34,-144.51 1184.34,-131.49 1184.34,-131.49 1184.34,-125.49 1190.34,-119.49 1196.34,-119.49 1196.34,-119.49 1311.87,-119.49 1311.87,-119.49 1317.87,-119.49 1323.87,-125.49 1323.87,-131.49 1323.87,-131.49 1323.87,-144.51 1323.87,-144.51 1323.87,-150.51 1317.87,-156.51 1311.87,-156.51"/>
<text text-anchor="middle" x="1254.11" y="-139.35" font-family="Helvetica,sans-Serif" font-size="12.00">FastAPI backend</text>
<text text-anchor="middle" x="1254.11" y="-126.6" font-family="Helvetica,sans-Serif" font-size="12.00">trashuq&#45;backend :4000</text>
</g>
<!-- frontend&#45;&gt;backend -->
<g id="edge2" class="edge">
<title>frontend&#45;&gt;backend</title>
<path fill="none" stroke="#475569" d="M623.08,-144.5C623.08,-144.5 1174.42,-144.5 1174.42,-144.5"/>
<polygon fill="#475569" stroke="#475569" points="1174.42,-147.3 1182.42,-144.5 1174.42,-141.7 1174.42,-147.3"/>
<text text-anchor="middle" x="915.34" y="-247.5" font-family="Helvetica,sans-Serif" font-size="10.00">/api/* proxy</text>
<text text-anchor="middle" x="915.34" y="-237" font-family="Helvetica,sans-Serif" font-size="10.00">BACKEND_API_URL=http://backend:4000</text>
</g>
<!-- mqtt -->
<g id="node4" class="node">
<title>mqtt</title>
<path fill="#dcfce7" stroke="#334155" d="M956.61,-86.51C956.61,-86.51 874.08,-86.51 874.08,-86.51 868.08,-86.51 862.08,-80.51 862.08,-74.51 862.08,-74.51 862.08,-61.49 862.08,-61.49 862.08,-55.49 868.08,-49.49 874.08,-49.49 874.08,-49.49 956.61,-49.49 956.61,-49.49 962.61,-49.49 968.61,-55.49 968.61,-61.49 968.61,-61.49 968.61,-74.51 968.61,-74.51 968.61,-80.51 962.61,-86.51 956.61,-86.51"/>
<text text-anchor="middle" x="915.34" y="-69.35" font-family="Helvetica,sans-Serif" font-size="12.00">Mosquitto broker</text>
<text text-anchor="middle" x="915.34" y="-56.6" font-family="Helvetica,sans-Serif" font-size="12.00">:1883 / :9001</text>
</g>
<!-- frontend&#45;&gt;mqtt -->
<g id="edge3" class="edge">
<title>frontend&#45;&gt;mqtt</title>
<path fill="none" stroke="#475569" d="M623.13,-138.5C715.58,-138.5 897.65,-138.5 897.65,-138.5 897.65,-138.5 897.65,-96.4 897.65,-96.4"/>
<polygon fill="#475569" stroke="#475569" points="900.45,-96.4 897.65,-88.4 894.85,-96.4 900.45,-96.4"/>
<text text-anchor="middle" x="732.84" y="-116.5" font-family="Helvetica,sans-Serif" font-size="10.00">MQTT over WebSocket</text>
<text text-anchor="middle" x="732.84" y="-106" font-family="Helvetica,sans-Serif" font-size="10.00">ws://localhost:9001/mqtt</text>
</g>
<!-- backend&#45;&gt;frontend -->
<g id="edge7" class="edge">
<title>backend&#45;&gt;frontend</title>
<path fill="none" stroke="#475569" d="M1183.85,-150.5C1183.85,-150.5 632.52,-150.5 632.52,-150.5"/>
<polygon fill="#475569" stroke="#475569" points="632.52,-147.71 624.52,-150.51 632.52,-153.31 632.52,-147.71"/>
<text text-anchor="middle" x="915.34" y="-162.5" font-family="Helvetica,sans-Serif" font-size="10.00">dashboard bootstrap</text>
<text text-anchor="middle" x="915.34" y="-152" font-family="Helvetica,sans-Serif" font-size="10.00">/api/dashboard/bootstrap</text>
</g>
<!-- db -->
<g id="node6" class="node">
<title>db</title>
<path fill="#ede9fe" stroke="#334155" d="M1558.03,-156.51C1558.03,-156.51 1474.75,-156.51 1474.75,-156.51 1468.75,-156.51 1462.75,-150.51 1462.75,-144.51 1462.75,-144.51 1462.75,-131.49 1462.75,-131.49 1462.75,-125.49 1468.75,-119.49 1474.75,-119.49 1474.75,-119.49 1558.03,-119.49 1558.03,-119.49 1564.03,-119.49 1570.03,-125.49 1570.03,-131.49 1570.03,-131.49 1570.03,-144.51 1570.03,-144.51 1570.03,-150.51 1564.03,-156.51 1558.03,-156.51"/>
<text text-anchor="middle" x="1516.39" y="-139.35" font-family="Helvetica,sans-Serif" font-size="12.00">PostgreSQL</text>
<text text-anchor="middle" x="1516.39" y="-126.6" font-family="Helvetica,sans-Serif" font-size="12.00">trashuq&#45;db :5432</text>
</g>
<!-- backend&#45;&gt;db -->
<g id="edge6" class="edge">
<title>backend&#45;&gt;db</title>
<path fill="none" stroke="#475569" d="M1324.05,-144.17C1324.05,-144.17 1452.9,-144.17 1452.9,-144.17"/>
<polygon fill="#475569" stroke="#475569" points="1452.9,-146.97 1460.9,-144.17 1452.9,-141.37 1452.9,-146.97"/>
<text text-anchor="middle" x="1387.5" y="-139" font-family="Helvetica,sans-Serif" font-size="10.00">persist telemetry</text>
</g>
<!-- fl -->
<g id="node7" class="node">
<title>fl</title>
<path fill="#fee2e2" stroke="#334155" d="M1569.65,-71.51C1569.65,-71.51 1463.12,-71.51 1463.12,-71.51 1457.12,-71.51 1451.12,-65.51 1451.12,-59.51 1451.12,-59.51 1451.12,-46.49 1451.12,-46.49 1451.12,-40.49 1457.12,-34.49 1463.12,-34.49 1463.12,-34.49 1569.65,-34.49 1569.65,-34.49 1575.65,-34.49 1581.65,-40.49 1581.65,-46.49 1581.65,-46.49 1581.65,-59.51 1581.65,-59.51 1581.65,-65.51 1575.65,-71.51 1569.65,-71.51"/>
<text text-anchor="middle" x="1516.39" y="-54.35" font-family="Helvetica,sans-Serif" font-size="12.00">FL coordinator</text>
<text text-anchor="middle" x="1516.39" y="-41.6" font-family="Helvetica,sans-Serif" font-size="12.00">gRPC service :50051</text>
</g>
<!-- backend&#45;&gt;fl -->
<g id="edge9" class="edge">
<title>backend&#45;&gt;fl</title>
<path fill="none" stroke="#475569" stroke-dasharray="5,2" d="M1324.09,-131.83C1382.64,-131.83 1456.65,-131.83 1456.65,-131.83 1456.65,-131.83 1456.65,-81.2 1456.65,-81.2"/>
<polygon fill="#475569" stroke="#475569" points="1459.45,-81.2 1456.65,-73.2 1453.85,-81.2 1459.45,-81.2"/>
<text text-anchor="middle" x="1387.5" y="-79" font-family="Helvetica,sans-Serif" font-size="10.00">coordination state</text>
</g>
<!-- mqtt&#45;&gt;backend -->
<g id="edge5" class="edge">
<title>mqtt&#45;&gt;backend</title>
<path fill="none" stroke="#475569" d="M932.65,-86.99C932.65,-103.9 932.65,-125.99 932.65,-125.99 932.65,-125.99 1174.44,-125.99 1174.44,-125.99"/>
<polygon fill="#475569" stroke="#475569" points="1174.44,-128.79 1182.44,-125.99 1174.44,-123.19 1174.44,-128.79"/>
<text text-anchor="middle" x="1096.34" y="-94" font-family="Helvetica,sans-Serif" font-size="10.00">subscribe arduino/+/#</text>
</g>
<!-- edgeNode -->
<g id="node5" class="node">
<title>edgeNode</title>
<path fill="#fef3c7" stroke="#334155" d="M631.34,-46.51C631.34,-46.51 509.81,-46.51 509.81,-46.51 503.81,-46.51 497.81,-40.51 497.81,-34.51 497.81,-34.51 497.81,-21.49 497.81,-21.49 497.81,-15.49 503.81,-9.49 509.81,-9.49 509.81,-9.49 631.34,-9.49 631.34,-9.49 637.34,-9.49 643.34,-15.49 643.34,-21.49 643.34,-21.49 643.34,-34.51 643.34,-34.51 643.34,-40.51 637.34,-46.51 631.34,-46.51"/>
<text text-anchor="middle" x="570.58" y="-29.35" font-family="Helvetica,sans-Serif" font-size="12.00">Edge node</text>
<text text-anchor="middle" x="570.58" y="-16.6" font-family="Helvetica,sans-Serif" font-size="12.00">simulator or real runtime</text>
</g>
<!-- edgeNode&#45;&gt;mqtt -->
<g id="edge4" class="edge">
<title>edgeNode&#45;&gt;mqtt</title>
<path fill="none" stroke="#475569" d="M632.65,-46.59C632.65,-57.04 632.65,-68 632.65,-68 632.65,-68 852.32,-68 852.32,-68"/>
<polygon fill="#475569" stroke="#475569" points="852.32,-70.8 860.32,-68 852.32,-65.2 852.32,-70.8"/>
<text text-anchor="middle" x="732.84" y="-57" font-family="Helvetica,sans-Serif" font-size="10.00">MQTT arduino/&lt;device&#45;id&gt;/...</text>
</g>
<!-- edgeNode&#45;&gt;fl -->
<g id="edge8" class="edge">
<title>edgeNode&#45;&gt;fl</title>
<path fill="none" stroke="#475569" d="M643.61,-40.5C643.61,-40.5 1441.36,-40.5 1441.36,-40.5"/>
<polygon fill="#475569" stroke="#475569" points="1441.36,-43.3 1449.36,-40.5 1441.36,-37.7 1441.36,-43.3"/>
<text text-anchor="middle" x="1096.34" y="-11.5" font-family="Helvetica,sans-Serif" font-size="10.00">gRPC Join / GetGlobalModel</text>
<text text-anchor="middle" x="1096.34" y="-1" font-family="Helvetica,sans-Serif" font-size="10.00">localhost:50051</text>
</g>
<!-- camera -->
<g id="node8" class="node">
<title>camera</title>
<path fill="#f8fafc" stroke="#334155" d="M168.03,-46C168.03,-46 12,-46 12,-46 6,-46 0,-40 0,-34 0,-34 0,-22 0,-22 0,-16 6,-10 12,-10 12,-10 168.03,-10 168.03,-10 174.03,-10 180.03,-16 180.03,-22 180.03,-22 180.03,-34 180.03,-34 180.03,-40 174.03,-46 168.03,-46"/>
<text text-anchor="middle" x="90.02" y="-22.98" font-family="Helvetica,sans-Serif" font-size="12.00">Camera or image/video source</text>
</g>
<!-- model -->
<g id="node9" class="node">
<title>model</title>
<path fill="#f8fafc" stroke="#334155" d="M383.31,-46.51C383.31,-46.51 243.03,-46.51 243.03,-46.51 237.03,-46.51 231.03,-40.51 231.03,-34.51 231.03,-34.51 231.03,-21.49 231.03,-21.49 231.03,-15.49 237.03,-9.49 243.03,-9.49 243.03,-9.49 383.31,-9.49 383.31,-9.49 389.31,-9.49 395.31,-15.49 395.31,-21.49 395.31,-21.49 395.31,-34.51 395.31,-34.51 395.31,-40.51 389.31,-46.51 383.31,-46.51"/>
<text text-anchor="middle" x="313.17" y="-29.35" font-family="Helvetica,sans-Serif" font-size="12.00">TFLite classification model</text>
<text text-anchor="middle" x="313.17" y="-16.6" font-family="Helvetica,sans-Serif" font-size="12.00">models/trash_classifier.tflite</text>
</g>
<!-- camera&#45;&gt;model -->
<g id="edge10" class="edge">
<title>camera&#45;&gt;model</title>
<path fill="none" stroke="#475569" d="M180.46,-28C180.46,-28 221.36,-28 221.36,-28"/>
<polygon fill="#475569" stroke="#475569" points="221.36,-30.8 229.36,-28 221.36,-25.2 221.36,-30.8"/>
</g>
<!-- model&#45;&gt;edgeNode -->
<g id="edge11" class="edge">
<title>model&#45;&gt;edgeNode</title>
<path fill="none" stroke="#475569" d="M395.68,-28C395.68,-28 488.14,-28 488.14,-28"/>
<polygon fill="#475569" stroke="#475569" points="488.14,-30.8 496.14,-28 488.14,-25.2 488.14,-30.8"/>
</g>
</g>
</svg>
