<?xml version="1.0" encoding="UTF-8" standalone="no"?>
<!DOCTYPE svg PUBLIC "-//W3C//DTD SVG 1.1//EN"
 "http://www.w3.org/Graphics/SVG/1.1/DTD/svg11.dtd">
<!-- Generated by graphviz version 12.2.1 (20241206.2353)
 -->
<!-- Title: G Pages: 1 -->
<svg width="976pt" height="281pt"
 viewBox="0.00 0.00 976.17 280.80" xmlns="http://www.w3.org/2000/svg" xmlns:xlink="http://www.w3.org/1999/xlink">
<g id="graph0" class="graph" transform="scale(1 1) rotate(0) translate(14.4 266.4)">
<title>G</title>
<polygon fill="white" stroke="none" points="-14.4,14.4 -14.4,-266.4 961.77,-266.4 961.77,14.4 -14.4,14.4"/>
<!-- bootstrap -->
<g id="node1" class="node">
<title>bootstrap</title>
<path fill="#dbeafe" stroke="#334155" d="M408.56,-108C408.56,-108 270.53,-108 270.53,-108 264.53,-108 258.53,-102 258.53,-96 258.53,-96 258.53,-84 258.53,-84 258.53,-78 264.53,-72 270.53,-72 270.53,-72 408.56,-72 408.56,-72 414.56,-72 420.56,-78 420.56,-84 420.56,-84 420.56,-96 420.56,-96 420.56,-102 414.56,-108 408.56,-108"/>
<text text-anchor="middle" x="339.54" y="-85.17" font-family="Helvetica,sans-Serif" font-size="11.00">GET /api/dashboard/bootstrap</text>
</g>
<!-- state -->
<g id="node3" class="node">
<title>state</title>
<path fill="#e2e8f0" stroke="#334155" d="M637.84,-144C637.84,-144 536.56,-144 536.56,-144 530.56,-144 524.56,-138 524.56,-132 524.56,-132 524.56,-120 524.56,-120 524.56,-114 530.56,-108 536.56,-108 536.56,-108 637.84,-108 637.84,-108 643.84,-108 649.84,-114 649.84,-120 649.84,-120 649.84,-132 649.84,-132 649.84,-138 643.84,-144 637.84,-144"/>
<text text-anchor="middle" x="587.2" y="-121.17" font-family="Helvetica,sans-Serif" font-size="11.00">React dashboard state</text>
</g>
<!-- bootstrap&#45;&gt;state -->
<g id="edge1" class="edge">
<title>bootstrap&#45;&gt;state</title>
<path fill="none" stroke="#475569" d="M421.04,-84C493.27,-84 587.37,-84 587.37,-84 587.37,-84 587.37,-98.43 587.37,-98.43"/>
<polygon fill="#475569" stroke="#475569" points="584.57,-98.43 587.37,-106.43 590.17,-98.43 584.57,-98.43"/>
</g>
<!-- websocket -->
<g id="node2" class="node">
<title>websocket</title>
<path fill="#dcfce7" stroke="#334155" d="M462.56,-180C462.56,-180 216.53,-180 216.53,-180 210.53,-180 204.53,-174 204.53,-168 204.53,-168 204.53,-156 204.53,-156 204.53,-150 210.53,-144 216.53,-144 216.53,-144 462.56,-144 462.56,-144 468.56,-144 474.56,-150 474.56,-156 474.56,-156 474.56,-168 474.56,-168 474.56,-174 468.56,-180 462.56,-180"/>
<text text-anchor="middle" x="339.54" y="-162.8" font-family="Helvetica,sans-Serif" font-size="11.00">MQTT WebSocket</text>
<text text-anchor="middle" x="339.54" y="-151.55" font-family="Helvetica,sans-Serif" font-size="11.00">arduino/+/status metrics event classification help logs</text>
</g>
<!-- websocket&#45;&gt;state -->
<g id="edge2" class="edge">
<title>websocket&#45;&gt;state</title>
<path fill="none" stroke="#475569" d="M447.37,-143.58C447.37,-134.72 447.37,-126 447.37,-126 447.37,-126 514.73,-126 514.73,-126"/>
<polygon fill="#475569" stroke="#475569" points="514.73,-128.8 522.73,-126 514.73,-123.2 514.73,-128.8"/>
</g>
<!-- cards -->
<g id="node4" class="node">
<title>cards</title>
<path fill="#f8fafc" stroke="#334155" d="M935.37,-252C935.37,-252 711.84,-252 711.84,-252 705.84,-252 699.84,-246 699.84,-240 699.84,-240 699.84,-228 699.84,-228 699.84,-222 705.84,-216 711.84,-216 711.84,-216 935.37,-216 935.37,-216 941.37,-216 947.37,-222 947.37,-228 947.37,-228 947.37,-240 947.37,-240 947.37,-246 941.37,-252 935.37,-252"/>
<text text-anchor="middle" x="823.61" y="-234.8" font-family="Helvetica,sans-Serif" font-size="11.00">Cards</text>
<text text-anchor="middle" x="823.61" y="-223.55" font-family="Helvetica,sans-Serif" font-size="11.00">Active Devices, Round, Accuracy, Training State</text>
</g>
<!-- state&#45;&gt;cards -->
<g id="edge3" class="edge">
<title>state&#45;&gt;cards</title>
<path fill="none" stroke="#475569" d="M650.05,-132C677.42,-132 703.37,-132 703.37,-132 703.37,-132 703.37,-206.25 703.37,-206.25"/>
<polygon fill="#475569" stroke="#475569" points="700.57,-206.25 703.37,-214.25 706.17,-206.25 700.57,-206.25"/>
</g>
<!-- summary -->
<g id="node5" class="node">
<title>summary</title>
<path fill="#f8fafc" stroke="#334155" d="M927.87,-180C927.87,-180 719.34,-180 719.34,-180 713.34,-180 707.34,-174 707.34,-168 707.34,-168 707.34,-156 707.34,-156 707.34,-150 713.34,-144 719.34,-144 719.34,-144 927.87,-144 927.87,-144 933.87,-144 939.87,-150 939.87,-156 939.87,-156 939.87,-168 939.87,-168 939.87,-174 933.87,-180 927.87,-180"/>
<text text-anchor="middle" x="823.61" y="-162.8" font-family="Helvetica,sans-Serif" font-size="11.00">Live Client Summary</text>
<text text-anchor="middle" x="823.61" y="-151.55" font-family="Helvetica,sans-Serif" font-size="11.00">status, CPU, RAM, mode, latest classification</text>
</g>
<!-- state&#45;&gt;summary -->
<g id="edge4" class="edge">
<title>state&#45;&gt;summary</title>
<path fill="none" stroke="#475569" d="M650.27,-120C683.06,-120 716.37,-120 716.37,-120 716.37,-120 716.37,-134.43 716.37,-134.43"/>
<polygon fill="#475569" stroke="#475569" points="713.57,-134.43 716.37,-142.43 719.17,-134.43 713.57,-134.43"/>
</g>
<!-- charts -->
<g id="node6" class="node">
<title>charts</title>
<path fill="#f8fafc" stroke="#334155" d="M909.5,-108C909.5,-108 737.72,-108 737.72,-108 731.72,-108 725.72,-102 725.72,-96 725.72,-96 725.72,-84 725.72,-84 725.72,-78 731.72,-72 737.72,-72 737.72,-72 909.5,-72 909.5,-72 915.5,-72 921.5,-78 921.5,-84 921.5,-84 921.5,-96 921.5,-96 921.5,-102 915.5,-108 909.5,-108"/>
<text text-anchor="middle" x="823.61" y="-90.8" font-family="Helvetica,sans-Serif" font-size="11.00">Charts</text>
<text text-anchor="middle" x="823.61" y="-79.55" font-family="Helvetica,sans-Serif" font-size="11.00">Local/global loss, accuracy, client drift</text>
</g>
<!-- state&#45;&gt;charts -->
<g id="edge5" class="edge">
<title>state&#45;&gt;charts</title>
<path fill="none" stroke="#475569" d="M618.37,-107.51C618.37,-101.34 618.37,-96 618.37,-96 618.37,-96 715.98,-96 715.98,-96"/>
<polygon fill="#475569" stroke="#475569" points="715.98,-98.8 723.98,-96 715.98,-93.2 715.98,-98.8"/>
</g>
<!-- streams -->
<g id="node7" class="node">
<title>streams</title>
<path fill="#f8fafc" stroke="#334155" d="M897.87,-36C897.87,-36 749.34,-36 749.34,-36 743.34,-36 737.34,-30 737.34,-24 737.34,-24 737.34,-12 737.34,-12 737.34,-6 743.34,0 749.34,0 749.34,0 897.87,0 897.87,0 903.87,0 909.87,-6 909.87,-12 909.87,-12 909.87,-24 909.87,-24 909.87,-30 903.87,-36 897.87,-36"/>
<text text-anchor="middle" x="823.61" y="-18.8" font-family="Helvetica,sans-Serif" font-size="11.00">Event Stream</text>
<text text-anchor="middle" x="823.61" y="-7.55" font-family="Helvetica,sans-Serif" font-size="11.00">Events, logs, help, classifications</text>
</g>
<!-- state&#45;&gt;streams -->
<g id="edge6" class="edge">
<title>state&#45;&gt;streams</title>
<path fill="none" stroke="#475569" d="M556.37,-107.68C556.37,-76.87 556.37,-18 556.37,-18 556.37,-18 727.33,-18 727.33,-18"/>
<polygon fill="#475569" stroke="#475569" points="727.33,-20.8 735.33,-18 727.33,-15.2 727.33,-20.8"/>
</g>
<!-- db -->
<g id="node8" class="node">
<title>db</title>
<path fill="#ede9fe" stroke="#334155" d="M142.53,-108C142.53,-108 12,-108 12,-108 6,-108 0,-102 0,-96 0,-96 0,-84 0,-84 0,-78 6,-72 12,-72 12,-72 142.53,-72 142.53,-72 148.53,-72 154.53,-78 154.53,-84 154.53,-84 154.53,-96 154.53,-96 154.53,-102 148.53,-108 142.53,-108"/>
<text text-anchor="middle" x="77.26" y="-90.8" font-family="Helvetica,sans-Serif" font-size="11.00">PostgreSQL mqtt_messages</text>
<text text-anchor="middle" x="77.26" y="-79.55" font-family="Helvetica,sans-Serif" font-size="11.00">status/latest metrics/history</text>
</g>
<!-- db&#45;&gt;bootstrap -->
<g id="edge7" class="edge">
<title>db&#45;&gt;bootstrap</title>
<path fill="none" stroke="#475569" d="M154.89,-90C154.89,-90 248.96,-90 248.96,-90"/>
<polygon fill="#475569" stroke="#475569" points="248.96,-92.8 256.96,-90 248.96,-87.2 248.96,-92.8"/>
</g>
<!-- mqtt -->
<g id="node9" class="node">
<title>mqtt</title>
<path fill="#dcfce7" stroke="#334155" d="M114.03,-180C114.03,-180 40.5,-180 40.5,-180 34.5,-180 28.5,-174 28.5,-168 28.5,-168 28.5,-156 28.5,-156 28.5,-150 34.5,-144 40.5,-144 40.5,-144 114.03,-144 114.03,-144 120.03,-144 126.03,-150 126.03,-156 126.03,-156 126.03,-168 126.03,-168 126.03,-174 120.03,-180 114.03,-180"/>
<text text-anchor="middle" x="77.26" y="-157.18" font-family="Helvetica,sans-Serif" font-size="11.00">Mosquitto broker</text>
</g>
<!-- mqtt&#45;&gt;websocket -->
<g id="edge8" class="edge">
<title>mqtt&#45;&gt;websocket</title>
<path fill="none" stroke="#475569" d="M126.29,-162C126.29,-162 194.59,-162 194.59,-162"/>
<polygon fill="#475569" stroke="#475569" points="194.59,-164.8 202.59,-162 194.59,-159.2 194.59,-164.8"/>
</g>
</g>
</svg>
