<?xml version="1.0" encoding="UTF-8" standalone="no"?>
<!DOCTYPE svg PUBLIC "-//W3C//DTD SVG 1.1//EN"
 "http://www.w3.org/Graphics/SVG/1.1/DTD/svg11.dtd">
<!-- Generated by graphviz version 12.2.1 (20241206.2353)
 -->
<!-- Title: G Pages: 1 -->
<svg width="772pt" height="439pt"
 viewBox="0.00 0.00 771.89 439.06" xmlns="http://www.w3.org/2000/svg" xmlns:xlink="http://www.w3.org/1999/xlink">
<g id="graph0" class="graph" transform="scale(1 1) rotate(0) translate(18 421.06)">
<title>G</title>
<polygon fill="white" stroke="none" points="-18,18 -18,-421.06 753.89,-421.06 753.89,18 -18,18"/>
<g id="clust1" class="cluster">
<title>cluster_host</title>
<path fill="white" stroke="#94a3b8" d="M233.89,-8C233.89,-8 715.89,-8 715.89,-8 721.89,-8 727.89,-14 727.89,-20 727.89,-20 727.89,-326.06 727.89,-326.06 727.89,-332.06 721.89,-338.06 715.89,-338.06 715.89,-338.06 233.89,-338.06 233.89,-338.06 227.89,-338.06 221.89,-332.06 221.89,-326.06 221.89,-326.06 221.89,-20 221.89,-20 221.89,-14 227.89,-8 233.89,-8"/>
<text text-anchor="middle" x="474.89" y="-320.76" font-family="Times,serif" font-size="14.00">Developer / demo host</text>
</g>
<g id="clust2" class="cluster">
<title>cluster_compose</title>
<path fill="white" stroke="#cbd5e1" d="M241.89,-16C241.89,-16 503.89,-16 503.89,-16 509.89,-16 515.89,-22 515.89,-28 515.89,-28 515.89,-293.56 515.89,-293.56 515.89,-299.56 509.89,-305.56 503.89,-305.56 503.89,-305.56 241.89,-305.56 241.89,-305.56 235.89,-305.56 229.89,-299.56 229.89,-293.56 229.89,-293.56 229.89,-28 229.89,-28 229.89,-22 235.89,-16 241.89,-16"/>
<text text-anchor="middle" x="372.89" y="-288.26" font-family="Times,serif" font-size="14.00">Docker Compose: TrashUQ</text>
</g>
<!-- frontend -->
<g id="node1" class="node">
<title>frontend</title>
<path fill="#e2e8f0" stroke="#334155" d="M440.78,-273.06C440.78,-273.06 347,-273.06 347,-273.06 341,-273.06 335,-267.06 335,-261.06 335,-261.06 335,-239.79 335,-239.79 335,-233.79 341,-227.79 347,-227.79 347,-227.79 440.78,-227.79 440.78,-227.79 446.78,-227.79 452.78,-233.79 452.78,-239.79 452.78,-239.79 452.78,-261.06 452.78,-261.06 452.78,-267.06 446.78,-273.06 440.78,-273.06"/>
<text text-anchor="middle" x="393.89" y="-256.85" font-family="Helvetica,sans-Serif" font-size="11.00">frontend</text>
<text text-anchor="middle" x="393.89" y="-245.6" font-family="Helvetica,sans-Serif" font-size="11.00">Next.js</text>
<text text-anchor="middle" x="393.89" y="-234.35" font-family="Helvetica,sans-Serif" font-size="11.00">0.0.0.0:3000 &#45;&gt; 3000</text>
</g>
<!-- backend -->
<g id="node2" class="node">
<title>backend</title>
<path fill="#dbeafe" stroke="#334155" d="M355.78,-178.04C355.78,-178.04 250,-178.04 250,-178.04 244,-178.04 238,-172.04 238,-166.04 238,-166.04 238,-133.52 238,-133.52 238,-127.52 244,-121.52 250,-121.52 250,-121.52 355.78,-121.52 355.78,-121.52 361.78,-121.52 367.78,-127.52 367.78,-133.52 367.78,-133.52 367.78,-166.04 367.78,-166.04 367.78,-172.04 361.78,-178.04 355.78,-178.04"/>
<text text-anchor="middle" x="302.89" y="-161.83" font-family="Helvetica,sans-Serif" font-size="11.00">backend</text>
<text text-anchor="middle" x="302.89" y="-150.58" font-family="Helvetica,sans-Serif" font-size="11.00">FastAPI + gRPC</text>
<text text-anchor="middle" x="302.89" y="-139.33" font-family="Helvetica,sans-Serif" font-size="11.00">0.0.0.0:4000 &#45;&gt; 4000</text>
<text text-anchor="middle" x="302.89" y="-128.08" font-family="Helvetica,sans-Serif" font-size="11.00">0.0.0.0:50051 &#45;&gt; 50051</text>
</g>
<!-- frontend&#45;&gt;backend -->
<g id="edge2" class="edge">
<title>frontend&#45;&gt;backend</title>
<path fill="none" stroke="#475569" d="M351.39,-227.34C351.39,-227.34 351.39,-188.04 351.39,-188.04"/>
<polygon fill="#475569" stroke="#475569" points="354.19,-188.04 351.39,-180.04 348.59,-188.04 354.19,-188.04"/>
<text text-anchor="middle" x="361.39" y="-199.24" font-family="Helvetica,sans-Serif" font-size="9.00">internal HTTP</text>
</g>
<!-- mqtt -->
<g id="node3" class="node">
<title>mqtt</title>
<path fill="#dcfce7" stroke="#334155" d="M490.78,-80.52C490.78,-80.52 397,-80.52 397,-80.52 391,-80.52 385,-74.52 385,-68.52 385,-68.52 385,-36 385,-36 385,-30 391,-24 397,-24 397,-24 490.78,-24 490.78,-24 496.78,-24 502.78,-30 502.78,-36 502.78,-36 502.78,-68.52 502.78,-68.52 502.78,-74.52 496.78,-80.52 490.78,-80.52"/>
<text text-anchor="middle" x="443.89" y="-64.31" font-family="Helvetica,sans-Serif" font-size="11.00">mqtt</text>
<text text-anchor="middle" x="443.89" y="-53.06" font-family="Helvetica,sans-Serif" font-size="11.00">Eclipse Mosquitto</text>
<text text-anchor="middle" x="443.89" y="-41.81" font-family="Helvetica,sans-Serif" font-size="11.00">0.0.0.0:1883 &#45;&gt; 1883</text>
<text text-anchor="middle" x="443.89" y="-30.56" font-family="Helvetica,sans-Serif" font-size="11.00">0.0.0.0:9001 &#45;&gt; 9001</text>
</g>
<!-- frontend&#45;&gt;mqtt -->
<g id="edge3" class="edge">
<title>frontend&#45;&gt;mqtt</title>
<path fill="none" stroke="#475569" d="M430.19,-227.31C430.19,-227.31 430.19,-90.5 430.19,-90.5"/>
<polygon fill="#475569" stroke="#475569" points="432.99,-90.5 430.19,-82.5 427.39,-90.5 432.99,-90.5"/>
<text text-anchor="middle" x="466.76" y="-146.1" font-family="Helvetica,sans-Serif" font-size="9.00">browser WebSocket</text>
</g>
<!-- backend&#45;&gt;mqtt -->
<g id="edge5" class="edge">
<title>backend&#45;&gt;mqtt</title>
<path fill="none" stroke="#475569" d="M361.78,-121.24C361.78,-92.37 361.78,-52 361.78,-52 361.78,-52 375.14,-52 375.14,-52"/>
<polygon fill="#475569" stroke="#475569" points="375.14,-54.8 383.14,-52 375.14,-49.2 375.14,-54.8"/>
</g>
<!-- db -->
<g id="node4" class="node">
<title>db</title>
<path fill="#ede9fe" stroke="#334155" d="M343.78,-74.89C343.78,-74.89 250,-74.89 250,-74.89 244,-74.89 238,-68.89 238,-62.89 238,-62.89 238,-41.62 238,-41.62 238,-35.62 244,-29.62 250,-29.62 250,-29.62 343.78,-29.62 343.78,-29.62 349.78,-29.62 355.78,-35.62 355.78,-41.62 355.78,-41.62 355.78,-62.89 355.78,-62.89 355.78,-68.89 349.78,-74.89 343.78,-74.89"/>
<text text-anchor="middle" x="296.89" y="-58.68" font-family="Helvetica,sans-Serif" font-size="11.00">db</text>
<text text-anchor="middle" x="296.89" y="-47.43" font-family="Helvetica,sans-Serif" font-size="11.00">PostgreSQL 16</text>
<text text-anchor="middle" x="296.89" y="-36.18" font-family="Helvetica,sans-Serif" font-size="11.00">0.0.0.0:5432 &#45;&gt; 5432</text>
</g>
<!-- backend&#45;&gt;db -->
<g id="edge4" class="edge">
<title>backend&#45;&gt;db</title>
<path fill="none" stroke="#475569" d="M296.89,-121.05C296.89,-121.05 296.89,-84.75 296.89,-84.75"/>
<polygon fill="#475569" stroke="#475569" points="299.69,-84.75 296.89,-76.75 294.09,-84.75 299.69,-84.75"/>
</g>
<!-- edgeLocal -->
<g id="node5" class="node">
<title>edgeLocal</title>
<path fill="#fef3c7" stroke="#334155" d="M707.78,-273.06C707.78,-273.06 536,-273.06 536,-273.06 530,-273.06 524,-267.06 524,-261.06 524,-261.06 524,-239.79 524,-239.79 524,-233.79 530,-227.79 536,-227.79 536,-227.79 707.78,-227.79 707.78,-227.79 713.78,-227.79 719.78,-233.79 719.78,-239.79 719.78,-239.79 719.78,-261.06 719.78,-261.06 719.78,-267.06 713.78,-273.06 707.78,-273.06"/>
<text text-anchor="middle" x="621.89" y="-256.85" font-family="Helvetica,sans-Serif" font-size="11.00">edge repo</text>
<text text-anchor="middle" x="621.89" y="-245.6" font-family="Helvetica,sans-Serif" font-size="11.00">uv run python &#45;m app.edge_simulator</text>
<text text-anchor="middle" x="621.89" y="-234.35" font-family="Helvetica,sans-Serif" font-size="11.00">or app.real_edge_runtime</text>
</g>
<!-- edgeLocal&#45;&gt;backend -->
<g id="edge7" class="edge">
<title>edgeLocal&#45;&gt;backend</title>
<path fill="none" stroke="#475569" d="M621.89,-227.39C621.89,-197.74 621.89,-150 621.89,-150 621.89,-150 377.73,-150 377.73,-150"/>
<polygon fill="#475569" stroke="#475569" points="377.73,-147.2 369.73,-150 377.73,-152.8 377.73,-147.2"/>
</g>
<!-- edgeLocal&#45;&gt;mqtt -->
<g id="edge6" class="edge">
<title>edgeLocal&#45;&gt;mqtt</title>
<path fill="none" stroke="#475569" d="M523.77,-250C498.26,-250 477.78,-250 477.78,-250 477.78,-250 477.78,-90.53 477.78,-90.53"/>
<polygon fill="#475569" stroke="#475569" points="480.58,-90.53 477.78,-82.53 474.98,-90.53 480.58,-90.53"/>
</g>
<!-- external -->
<g id="node6" class="node">
<title>external</title>
<path fill="#fff7ed" stroke="#334155" d="M201.78,-273.06C201.78,-273.06 12,-273.06 12,-273.06 6,-273.06 0,-267.06 0,-261.06 0,-261.06 0,-239.79 0,-239.79 0,-233.79 6,-227.79 12,-227.79 12,-227.79 201.78,-227.79 201.78,-227.79 207.78,-227.79 213.78,-233.79 213.78,-239.79 213.78,-239.79 213.78,-261.06 213.78,-261.06 213.78,-267.06 207.78,-273.06 201.78,-273.06"/>
<text text-anchor="middle" x="106.89" y="-256.85" font-family="Helvetica,sans-Serif" font-size="11.00">External edge device</text>
<text text-anchor="middle" x="106.89" y="-245.6" font-family="Helvetica,sans-Serif" font-size="11.00">MQTT_HOST=&lt;SERVER_LAN_IP&gt;</text>
<text text-anchor="middle" x="106.89" y="-234.35" font-family="Helvetica,sans-Serif" font-size="11.00">FL_GRPC_HOST=&lt;SERVER_LAN_IP&gt;</text>
</g>
<!-- external&#45;&gt;backend -->
<g id="edge9" class="edge">
<title>external&#45;&gt;backend</title>
<path fill="none" stroke="#475569" d="M214.22,-250C252.58,-250 286.5,-250 286.5,-250 286.5,-250 286.5,-188.01 286.5,-188.01"/>
<polygon fill="#475569" stroke="#475569" points="289.3,-188.01 286.5,-180.01 283.7,-188.01 289.3,-188.01"/>
</g>
<!-- external&#45;&gt;mqtt -->
<g id="edge8" class="edge">
<title>external&#45;&gt;mqtt</title>
<path fill="none" stroke="#475569" d="M106.89,-227.55C106.89,-215.42 106.89,-203 106.89,-203 106.89,-203 407.59,-203 407.59,-203 407.59,-203 407.59,-90.48 407.59,-90.48"/>
<polygon fill="#475569" stroke="#475569" points="410.39,-90.48 407.59,-82.48 404.79,-90.48 410.39,-90.48"/>
</g>
<!-- browser -->
<g id="node7" class="node">
<title>browser</title>
<path fill="#e2e8f0" stroke="#334155" d="M438.53,-403.06C438.53,-403.06 349.25,-403.06 349.25,-403.06 343.25,-403.06 337.25,-397.06 337.25,-391.06 337.25,-391.06 337.25,-379.06 337.25,-379.06 337.25,-373.06 343.25,-367.06 349.25,-367.06 349.25,-367.06 438.53,-367.06 438.53,-367.06 444.53,-367.06 450.53,-373.06 450.53,-379.06 450.53,-379.06 450.53,-391.06 450.53,-391.06 450.53,-397.06 444.53,-403.06 438.53,-403.06"/>
<text text-anchor="middle" x="393.89" y="-385.86" font-family="Helvetica,sans-Serif" font-size="11.00">Browser</text>
<text text-anchor="middle" x="393.89" y="-374.61" font-family="Helvetica,sans-Serif" font-size="11.00">http://localhost:3000</text>
</g>
<!-- browser&#45;&gt;frontend -->
<g id="edge1" class="edge">
<title>browser&#45;&gt;frontend</title>
<path fill="none" stroke="#475569" d="M393.89,-366.62C393.89,-366.62 393.89,-282.64 393.89,-282.64"/>
<polygon fill="#475569" stroke="#475569" points="396.69,-282.64 393.89,-274.64 391.09,-282.64 396.69,-282.64"/>
</g>
</g>
</svg>
