<?xml version="1.0" encoding="UTF-8" standalone="no"?>
<!DOCTYPE svg PUBLIC "-//W3C//DTD SVG 1.1//EN"
 "http://www.w3.org/Graphics/SVG/1.1/DTD/svg11.dtd">
<!-- Generated by graphviz version 12.2.1 (20241206.2353)
 -->
<!-- Title: G Pages: 1 -->
<svg width="1040pt" height="267pt"
 viewBox="0.00 0.00 1040.20 267.46" xmlns="http://www.w3.org/2000/svg" xmlns:xlink="http://www.w3.org/1999/xlink">
<g id="graph0" class="graph" transform="scale(1 1) rotate(0) translate(18 249.46)">
<title>G</title>
<polygon fill="white" stroke="none" points="-18,18 -18,-249.46 1022.2,-249.46 1022.2,18 -18,18"/>
<!-- edgeClient -->
<g id="node1" class="node">
<title>edgeClient</title>
<path fill="#fef3c7" stroke="#334155" d="M402.33,-231.46C402.33,-231.46 329.67,-231.46 329.67,-231.46 323.67,-231.46 317.67,-225.46 317.67,-219.46 317.67,-219.46 317.67,-207.46 317.67,-207.46 317.67,-201.46 323.67,-195.46 329.67,-195.46 329.67,-195.46 402.33,-195.46 402.33,-195.46 408.33,-195.46 414.33,-201.46 414.33,-207.46 414.33,-207.46 414.33,-219.46 414.33,-219.46 414.33,-225.46 408.33,-231.46 402.33,-231.46"/>
<text text-anchor="middle" x="366" y="-208.44" font-family="Helvetica,sans-Serif" font-size="12.00">Edge FL client</text>
</g>
<!-- fl -->
<g id="node2" class="node">
<title>fl</title>
<path fill="#fee2e2" stroke="#334155" d="M366.08,-134.96C366.08,-134.96 207.92,-134.96 207.92,-134.96 201.92,-134.96 195.92,-128.96 195.92,-122.96 195.92,-122.96 195.92,-108.5 195.92,-108.5 195.92,-102.5 201.92,-96.5 207.92,-96.5 207.92,-96.5 366.08,-96.5 366.08,-96.5 372.08,-96.5 378.08,-102.5 378.08,-108.5 378.08,-108.5 378.08,-122.96 378.08,-122.96 378.08,-128.96 372.08,-134.96 366.08,-134.96"/>
<text text-anchor="middle" x="287" y="-117.08" font-family="Helvetica,sans-Serif" font-size="12.00">Backend gRPC FL coordinator</text>
<text text-anchor="middle" x="287" y="-104.33" font-family="Helvetica,sans-Serif" font-size="12.00">:50051</text>
</g>
<!-- edgeClient&#45;&gt;fl -->
<g id="edge1" class="edge">
<title>edgeClient&#45;&gt;fl</title>
<path fill="none" stroke="#475569" d="M329.75,-195.08C329.75,-195.08 329.75,-144.88 329.75,-144.88"/>
<polygon fill="#475569" stroke="#475569" points="332.55,-144.88 329.75,-136.88 326.95,-144.88 332.55,-144.88"/>
<text text-anchor="middle" x="132.38" y="-160.96" font-family="Helvetica,sans-Serif" font-size="10.00">Join(client_id)</text>
</g>
<!-- edgeClient&#45;&gt;fl -->
<g id="edge5" class="edge">
<title>edgeClient&#45;&gt;fl</title>
<path fill="none" stroke="#475569" d="M341.83,-195.08C341.83,-195.08 341.83,-144.88 341.83,-144.88"/>
<polygon fill="#475569" stroke="#475569" points="344.63,-144.88 341.83,-136.88 339.03,-144.88 344.63,-144.88"/>
<text text-anchor="middle" x="264.25" y="-160.96" font-family="Helvetica,sans-Serif" font-size="10.00">GetGlobalModel(client_id)</text>
</g>
<!-- mqtt -->
<g id="node4" class="node">
<title>mqtt</title>
<path fill="#dcfce7" stroke="#334155" d="M776.46,-133.73C776.46,-133.73 641.54,-133.73 641.54,-133.73 635.54,-133.73 629.54,-127.73 629.54,-121.73 629.54,-121.73 629.54,-109.73 629.54,-109.73 629.54,-103.73 635.54,-97.73 641.54,-97.73 641.54,-97.73 776.46,-97.73 776.46,-97.73 782.46,-97.73 788.46,-103.73 788.46,-109.73 788.46,-109.73 788.46,-121.73 788.46,-121.73 788.46,-127.73 782.46,-133.73 776.46,-133.73"/>
<text text-anchor="middle" x="709" y="-110.7" font-family="Helvetica,sans-Serif" font-size="12.00">MQTT event/log telemetry</text>
</g>
<!-- edgeClient&#45;&gt;mqtt -->
<g id="edge9" class="edge">
<title>edgeClient&#45;&gt;mqtt</title>
<path fill="none" stroke="#475569" d="M396.21,-195.13C396.21,-166.9 396.21,-116 396.21,-116 396.21,-116 619.75,-116 619.75,-116"/>
<polygon fill="#475569" stroke="#475569" points="619.75,-118.8 627.75,-116 619.75,-113.2 619.75,-118.8"/>
<text text-anchor="middle" x="749.88" y="-160.96" font-family="Helvetica,sans-Serif" font-size="10.00">event fl_connected</text>
</g>
<!-- fl&#45;&gt;edgeClient -->
<g id="edge4" class="edge">
<title>fl&#45;&gt;edgeClient</title>
<path fill="none" stroke="#475569" d="M353.92,-135.04C353.92,-135.04 353.92,-185.67 353.92,-185.67"/>
<polygon fill="#475569" stroke="#475569" points="351.12,-185.67 353.92,-193.67 356.72,-185.67 351.12,-185.67"/>
<text text-anchor="middle" x="416.25" y="-160.96" font-family="Helvetica,sans-Serif" font-size="10.00">JoinResponse(ok=true)</text>
</g>
<!-- fl&#45;&gt;edgeClient -->
<g id="edge8" class="edge">
<title>fl&#45;&gt;edgeClient</title>
<path fill="none" stroke="#475569" d="M366,-135.04C366,-135.04 366,-185.67 366,-185.67"/>
<polygon fill="#475569" stroke="#475569" points="363.2,-185.67 366,-193.67 368.8,-185.67 363.2,-185.67"/>
<text text-anchor="middle" x="588.12" y="-160.96" font-family="Helvetica,sans-Serif" font-size="10.00">GetGlobalModelResponse(ok=true)</text>
</g>
<!-- state -->
<g id="node3" class="node">
<title>state</title>
<path fill="#e2e8f0" stroke="#334155" d="M265.58,-36C265.58,-36 92.42,-36 92.42,-36 86.42,-36 80.42,-30 80.42,-24 80.42,-24 80.42,-12 80.42,-12 80.42,-6 86.42,0 92.42,0 92.42,0 265.58,0 265.58,0 271.58,0 277.58,-6 277.58,-12 277.58,-12 277.58,-24 277.58,-24 277.58,-30 271.58,-36 265.58,-36"/>
<text text-anchor="middle" x="179" y="-12.97" font-family="Helvetica,sans-Serif" font-size="12.00">In&#45;memory FederatedCoordinator</text>
</g>
<!-- fl&#45;&gt;state -->
<g id="edge2" class="edge">
<title>fl&#45;&gt;state</title>
<path fill="none" stroke="#475569" d="M212.25,-96.42C212.25,-96.42 212.25,-45.79 212.25,-45.79"/>
<polygon fill="#475569" stroke="#475569" points="215.05,-45.79 212.25,-37.79 209.45,-45.79 215.05,-45.79"/>
<text text-anchor="middle" x="43.5" y="-62" font-family="Helvetica,sans-Serif" font-size="10.00">register online client</text>
</g>
<!-- fl&#45;&gt;state -->
<g id="edge6" class="edge">
<title>fl&#45;&gt;state</title>
<path fill="none" stroke="#475569" d="M228.58,-96.42C228.58,-96.42 228.58,-45.79 228.58,-45.79"/>
<polygon fill="#475569" stroke="#475569" points="231.38,-45.79 228.58,-37.79 225.78,-45.79 231.38,-45.79"/>
<text text-anchor="middle" x="186.75" y="-62" font-family="Helvetica,sans-Serif" font-size="10.00">read current global model</text>
</g>
<!-- note -->
<g id="node5" class="node">
<title>note</title>
<polygon fill="#fff7ed" stroke="#334155" points="998.2,-36 363.8,-36 363.8,0 1004.2,0 1004.2,-30 998.2,-36"/>
<polyline fill="none" stroke="#334155" points="998.2,-36 998.2,-30"/>
<polyline fill="none" stroke="#334155" points="1004.2,-30 998.2,-30"/>
<text text-anchor="middle" x="684" y="-12.97" font-family="Helvetica,sans-Serif" font-size="12.00">SubmitUpdate is intentionally skipped today because the edge repo does not yet produce a real local update payload.</text>
</g>
<!-- fl&#45;&gt;note -->
<g id="edge10" class="edge">
<title>fl&#45;&gt;note</title>
<path fill="none" stroke="#475569" stroke-dasharray="5,2" d="M370.94,-96.42C370.94,-78.95 370.94,-53.42 370.94,-36.28"/>
</g>
<!-- state&#45;&gt;fl -->
<g id="edge3" class="edge">
<title>state&#45;&gt;fl</title>
<path fill="none" stroke="#475569" d="M244.92,-36.38C244.92,-36.38 244.92,-86.58 244.92,-86.58"/>
<polygon fill="#475569" stroke="#475569" points="242.12,-86.58 244.92,-94.58 247.72,-86.58 242.12,-86.58"/>
<text text-anchor="middle" x="368.38" y="-62" font-family="Helvetica,sans-Serif" font-size="10.00">round, model_version, global_weights</text>
</g>
<!-- state&#45;&gt;fl -->
<g id="edge7" class="edge">
<title>state&#45;&gt;fl</title>
<path fill="none" stroke="#475569" d="M261.25,-36.38C261.25,-36.38 261.25,-86.58 261.25,-86.58"/>
<polygon fill="#475569" stroke="#475569" points="258.45,-86.58 261.25,-94.58 264.05,-86.58 258.45,-86.58"/>
<text text-anchor="middle" x="576.38" y="-62" font-family="Helvetica,sans-Serif" font-size="10.00">round, model_version, global_weights</text>
</g>
</g>
</svg>
