<?xml version="1.0" encoding="utf-8"?>
<!-- Generator: Adobe Illustrator 16.0.0, SVG Export Plug-In . SVG Version: 6.00 Build 0)  -->
<!DOCTYPE svg PUBLIC "-//W3C//DTD SVG 1.1//EN" "http://www.w3.org/Graphics/SVG/1.1/DTD/svg11.dtd">
<svg version="1.1" id="Capa_1" xmlns="http://www.w3.org/2000/svg" xmlns:xlink="http://www.w3.org/1999/xlink" x="0px" y="0px"
	 width="881px" height="347.89px" viewBox="0 0 881 347.89" enable-background="new 0 0 881 347.89" xml:space="preserve">
<g>
	<path fill-rule="evenodd" clip-rule="evenodd" fill="#030303" d="M674.549,201.908c-3.787-0.055-6.68-3.061-6.629-6.893
		c0.051-3.749,3.129-6.712,6.902-6.642c3.639,0.068,6.6,3.154,6.572,6.848C681.365,198.992,678.324,201.962,674.549,201.908z"/>
	<g>
		<path fill-rule="evenodd" clip-rule="evenodd" fill="#710249" d="M90.386,205.515c0.564-0.408,1.048,0.026,1.518,0.196
			c4.707,1.696,9.295,3.68,13.797,5.859c14.635,7.086,28.267,15.749,40.578,26.381c15.683,13.543,29.243,28.97,40.366,46.488
			c4.017,6.325,7.377,13.003,10.483,19.814c0.766,1.678,1.552,3.349,2.531,5.017c0.549-0.416,0.759-1.006,1.019-1.542
			c1.512-3.121,2.998-6.254,4.505-9.377c5.176-10.724,11.647-20.625,19.02-29.954c5.482-6.938,11.372-13.516,17.571-19.818
			c13.74-13.968,29.426-25.288,46.77-34.352c6.073-3.174,12.291-6.025,18.725-8.394c0.422-0.155,0.849-0.298,1.278-0.434
			c0.075-0.023,0.17,0.018,0.351,0.042c-0.345,0.608-0.826,1.054-1.279,1.513c-4.149,4.202-8.308,8.396-12.458,12.596
			c-7.352,7.438-14.701,14.878-22.05,22.32c-4.877,4.94-9.747,9.887-14.623,14.828c-8.677,8.792-17.356,17.579-26.032,26.37
			c-4.94,5.005-9.878,10.011-14.813,15.02c-5.821,5.908-11.639,11.818-17.456,17.73c-0.149,0.152-0.371,0.263-0.367,0.527
			c-0.09,0-0.18,0-0.271,0c-1.082-1.137-2.146-2.291-3.249-3.408c-6.896-6.997-13.804-13.984-20.701-20.98
			c-7.341-7.445-14.675-14.897-22.011-22.346c-5.818-5.908-11.637-11.816-17.454-17.724c-5.851-5.94-11.7-11.88-17.551-17.82
			c-5.85-5.941-11.702-11.878-17.548-17.823c-3.286-3.341-6.559-6.696-9.843-10.04c-0.249-0.254-0.538-0.47-0.809-0.704
			L90.386,205.515z"/>
		<path fill-rule="evenodd" clip-rule="evenodd" fill="#020202" d="M848.432,153.176c-0.756,1.418-1.445,2.869-2.426,4.163
			c-3.357,4.433-8.543,6.249-13.785,4.791c-3.805-1.059-6-3.778-6.223-7.726c-0.037-0.675-0.049-1.352-0.049-2.027
			c-0.002-8.433-0.002-16.865-0.002-25.298c0-0.226,0.002-0.451,0-0.676c0-1.361,0.123-1.284-1.348-1.283
			c-0.811,0.001-1.623-0.016-2.434,0.005c-0.512,0.014-0.676-0.18-0.73-0.704c-0.119-1.168,0.232-2.002,1.168-2.787
			c4.871-4.08,8.965-8.864,12.516-14.121c0.535-0.793,1.727-1.197,2.555-0.885c0.195,0.073,0.273,0.209,0.277,0.4
			c0.008,0.315,0.012,0.631,0.012,0.947c0,4.058-0.002,8.117,0.002,12.175c0.002,1.103,0.016,1.113,1.1,1.117
			c2.074,0.008,4.148-0.006,6.223,0.006c0.934,0.005,0.961,0.023,0.949,0.984c-0.01,0.894,0.367,2.005-0.148,2.624
			c-0.549,0.659-1.693,0.196-2.574,0.227c-1.439,0.05-2.885,0.009-4.328,0.015c-1.213,0.005-1.221,0.01-1.221,1.28
			c-0.004,3.608-0.002,7.215-0.002,10.823c0,4.645,0.006,9.289-0.004,13.934c-0.002,0.818,0.07,1.626,0.281,2.409
			c0.342,1.274,0.932,2.36,2.377,2.661c1.449,0.301,2.672-0.134,3.664-1.203c0.738-0.796,1.338-1.702,1.859-2.651
			c0.24-0.437,0.455-0.588,0.945-0.312c0.42,0.236,0.82,0.564,1.346,0.573C848.432,152.815,848.432,152.996,848.432,153.176z"/>
		<path fill-rule="evenodd" clip-rule="evenodd" fill="#010101" d="M168.616,161.852c0-19.029-0.002-38.057,0.003-57.086
			c0-1.926-0.21-1.618,1.662-1.624c4.915-0.015,9.83-0.005,14.745-0.004c0.315,0,0.632,0.008,0.946,0.001
			c0.395-0.01,0.571,0.177,0.564,0.568c-0.009,0.406,0,0.812,0,1.217c0,37.246,0.007,74.491-0.01,111.737
			c-0.001,4.149,1.354,7.719,4.415,10.512c7.798,7.115,19.018,2.803,21.578-6.489c0.36-1.309,0.479-2.651,0.478-4.012
			c-0.006-37.246-0.005-74.491-0.005-111.737c0-1.797,0-1.797,1.767-1.798c5.005,0,10.01-0.002,15.016,0.002
			c1.121,0,1.121,0.012,1.139,1.075c0.003,0.18,0,0.36,0,0.541c0,37.381,0.017,74.762-0.012,112.143
			c-0.007,9.044-3.23,16.835-9.719,23.152c-5.94,5.784-13.154,8.81-21.444,8.854c-7.278,0.039-13.82-2.368-19.432-7.023
			c-7.05-5.848-10.883-13.41-11.591-22.543c-0.09-1.167-0.097-2.341-0.097-3.512C168.614,197.835,168.616,179.843,168.616,161.852z"
			/>
		<path fill-rule="evenodd" clip-rule="evenodd" fill="#030303" d="M461.627,212.497c0.316-0.413,0.2-0.782,0.2-1.118
			c0.01-4.96,0.007-9.92,0.006-14.88c0-0.723-0.045-1.438-0.232-2.143c-0.267-1.003-0.877-1.647-1.878-1.932
			c-1.178-0.334-2.383-0.473-3.6-0.554c-0.288-0.02-0.714,0.075-0.746-0.375c-0.041-0.569-0.23-1.201,0.141-1.692
			c0.212-0.281,0.681-0.118,1.033-0.119c5.095-0.006,10.19-0.004,15.285-0.004c0.496,0,0.994,0.024,1.488-0.006
			c0.561-0.035,0.854,0.146,0.799,0.756c-0.028,0.313-0.005,0.631-0.005,0.947c0,15.962-0.001,31.924,0.005,47.886
			c0,0.766,0.019,1.536,0.115,2.293c0.196,1.535,1.014,2.572,2.57,2.934c0.569,0.132,1.141,0.28,1.719,0.347
			c0.475,0.055,0.558,0.286,0.578,0.708c0.064,1.321,0.049,1.392-1.097,1.483c-5.221,0.415-10.385,1.144-15.406,2.697
			c-0.073,0.022-0.167-0.023-0.409-0.062c0-1.688,0-3.409,0-5.469c-0.733,0.664-1.215,1.097-1.694,1.532
			c-1.719,1.563-3.602,2.879-5.862,3.509c-5.215,1.455-9.796,0.241-13.737-3.432c-2.971-2.769-4.753-6.202-5.474-10.175
			c-1.021-5.644-0.82-11.237,1.191-16.647c1.766-4.746,4.784-8.532,9.582-10.451c4.829-1.932,9.453-1.527,13.477,2.134
			c0.467,0.425,0.918,0.867,1.377,1.299C461.236,212.136,461.422,212.307,461.627,212.497z M461.835,228.227
			c0-3.156-0.069-6.314,0.031-9.468c0.047-1.477-0.43-2.63-1.388-3.661c-0.338-0.363-0.669-0.735-1.035-1.067
			c-2.912-2.641-7.416-1.997-9.446,1.351c-0.998,1.646-1.495,3.47-1.772,5.35c-0.729,4.931-0.666,9.882-0.201,14.828
			c0.194,2.066,0.604,4.101,1.573,5.977c1.904,3.686,5.864,4.477,9.049,1.792c0.971-0.819,1.754-1.808,2.503-2.827
			c0.5-0.679,0.71-1.408,0.701-2.266C461.814,234.899,461.835,231.562,461.835,228.227z"/>
		<path fill-rule="evenodd" clip-rule="evenodd" fill="#020202" d="M716.395,249.734c0-1.785,0-3.523,0-5.526
			c-0.49,0.451-0.809,0.732-1.113,1.027c-2.078,1.999-4.389,3.621-7.256,4.239c-4.629,0.999-8.75-0.094-12.334-3.18
			c-3.736-3.218-5.656-7.401-6.293-12.205c-0.615-4.649-0.359-9.26,1-13.771c1.232-4.088,3.488-7.508,6.936-10.058
			c3.449-2.552,7.312-3.361,11.516-2.433c2.088,0.461,3.783,1.631,5.33,3.05c0.58,0.532,1.156,1.068,1.744,1.609
			c0.312-0.35,0.203-0.674,0.203-0.968c0.008-4.913,0.006-9.826,0.006-14.739c0-0.767-0.07-1.523-0.244-2.277
			c-0.258-1.123-0.898-1.826-2.021-2.111c-1.096-0.278-2.203-0.438-3.33-0.507c-0.932-0.057-0.932-0.075-0.945-1.021
			c-0.018-1.169-0.018-1.179,1.148-1.179c5.453-0.004,10.906-0.003,16.361-0.001c1.344,0,1.209-0.098,1.209,1.254
			c0.002,15.865,0,31.731,0.004,47.596c0,1.035,0.035,2.066,0.195,3.095c0.242,1.56,1.086,2.53,2.623,2.888
			c0.482,0.112,0.965,0.256,1.455,0.291c0.602,0.042,0.855,0.232,0.838,0.897c-0.029,1.195,0.021,1.22-1.139,1.317
			c-5.17,0.432-10.295,1.113-15.271,2.66C716.854,249.731,716.67,249.712,716.395,249.734z M716.135,228.126
			c0-3.242-0.027-6.484,0.016-9.725c0.014-1.006-0.26-1.856-0.877-2.618c-0.395-0.49-0.777-0.996-1.223-1.438
			c-3.102-3.089-7.955-2.401-10.033,1.43c-0.756,1.395-1.199,2.909-1.447,4.472c-0.854,5.371-0.756,10.758-0.186,16.143
			c0.201,1.883,0.664,3.722,1.598,5.401c1.029,1.853,2.502,3.038,4.719,3.094c1.662,0.042,3.076-0.558,4.301-1.642
			c0.916-0.808,1.686-1.745,2.396-2.734c0.516-0.716,0.762-1.48,0.75-2.389C716.109,234.789,716.133,231.457,716.135,228.126z"/>
		<path fill-rule="evenodd" clip-rule="evenodd" fill="#030303" d="M463.337,104.716c-1.766,0.158-3.422,0.277-5.027,0.795
			c-1.461,0.471-2.373,1.407-2.776,2.868c-0.363,1.311-0.516,2.653-0.517,4.008c-0.008,10.1-0.024,20.2,0.01,30.3
			c0.009,2.705,0.262,5.4,1.056,8.011c1.54,5.066,5.087,7.853,10.389,8.149c2.543,0.143,5.056-0.09,7.465-0.939
			c4.739-1.671,7.277-5.234,8.373-9.977c0.581-2.513,0.783-5.074,0.788-7.645c0.02-8.928,0.01-17.855,0.006-26.783
			c0-1.492-0.136-2.97-0.558-4.409c-0.489-1.671-1.559-2.79-3.191-3.418c-1.486-0.572-3.06-0.704-4.593-0.975
			c-0.259-2.153-0.259-2.153,1.716-2.153c5.274,0,10.551,0,15.826,0c0.445,0,0.891,0,1.295,0c0.077,0.165,0.142,0.243,0.148,0.326
			c0.147,1.792,0.142,1.774-1.559,2.229c-0.867,0.232-1.726,0.515-2.569,0.823c-1.394,0.51-2.153,1.543-2.427,2.993
			c-0.271,1.428-0.291,2.868-0.292,4.309c-0.006,9.288,0.024,18.577-0.016,27.865c-0.018,3.86-0.656,7.627-2.239,11.184
			c-2.111,4.744-5.555,8.089-10.574,9.56c-7.126,2.088-14.271,1.935-21.241-0.62c-6.164-2.26-9.767-6.856-11.064-13.267
			c-0.385-1.903-0.562-3.829-0.561-5.774c0.01-9.604,0.005-19.208,0.005-28.812c0-1.443-0.062-2.878-0.276-4.312
			c-0.281-1.892-1.234-3.111-3.146-3.595c-1.008-0.255-2.019-0.473-3.041-0.622c-0.503-0.073-0.735-0.241-0.682-0.754
			c0.051-0.485-0.109-0.99,0.167-1.533c0.373,0,0.774,0,1.175,0c8.883,0,17.766,0,26.648,0c0.181,0,0.364,0.024,0.54-0.004
			c0.762-0.124,0.942,0.272,0.871,0.93C463.423,103.874,463.539,104.288,463.337,104.716z"/>
		<path fill-rule="evenodd" clip-rule="evenodd" fill="#710249" d="M313.561,150.748c9.305,2.816,16.47,8.442,21.844,16.625
			c7.104-7.347,15.585-11.917,25.788-13.769c-0.787,5.146-2.406,9.818-4.695,14.274c-2.277,4.435-5.268,8.359-8.838,11.971
			c5.773,3.852,10.218,8.738,13.44,14.722c1.545,2.87,2.714,5.904,2.938,7.67c-12.267-8.974-25.868-12.204-40.942-10
			C325.257,177.128,322.257,163.31,313.561,150.748z"/>
		<path fill-rule="evenodd" clip-rule="evenodd" fill="#710249" d="M199.344,86.296c-8.967-12.241-20.72-19.925-35.729-22.475
			c8.538-4.715,17.566-5.88,27.164-3.981c-0.132-10.365,2.758-19.706,8.646-28.293c5.956,8.544,8.701,17.929,8.677,28.279
			c9.581-1.871,18.574-0.715,27.106,3.984C220.216,66.413,208.371,73.991,199.344,86.296z"/>
		<path fill-rule="evenodd" clip-rule="evenodd" fill="#710249" d="M35.547,152.877c10.104,1.784,18.536,6.438,25.67,13.736
			c5.404-8.143,12.546-13.811,21.911-16.782c0.041,0.47-0.193,0.682-0.354,0.909c-5.126,7.23-8.242,15.262-9.505,24.013
			c-0.75,5.201-0.712,10.415,0.002,15.621c0.012,0.089,0.04,0.176,0.053,0.265c0.148,1.011,0.137,1.032-0.834,0.886
			c-1.648-0.247-3.304-0.418-4.97-0.509c-12.415-0.675-23.701,2.554-33.854,9.74c-0.318,0.225-0.577,0.581-1.033,0.576
			c-0.168-0.38,0.033-0.702,0.144-1.037c2.782-8.4,7.79-15.161,14.969-20.319c1.231-0.884,1.229-0.854,0.151-1.987
			c-6.449-6.774-10.481-14.791-12.273-23.952c-0.035-0.177-0.059-0.356-0.074-0.536C35.538,153.368,35.547,153.233,35.547,152.877z"
			/>
		<path fill-rule="evenodd" clip-rule="evenodd" fill="#040404" d="M597.195,228.854c-0.441,2.516-0.838,4.817-1.25,7.116
			c-0.691,3.857-1.391,7.712-2.092,11.566c-0.195,1.065-0.203,1.076-1.248,1.077c-3.336,0.006-6.672,0.002-10.008,0.002
			c-12.443,0-24.887,0-37.328,0c-0.227,0-0.451,0-0.678,0c-1.373-0.003-1.766-0.54-1.41-1.885c0.09-0.343,0.32-0.381,0.602-0.392
			c0.992-0.039,1.977-0.14,2.947-0.35c2.363-0.511,3.775-2.045,4.055-4.449c0.062-0.535,0.07-1.079,0.07-1.619
			c0.004-13.84,0.006-27.681,0-41.521c0-0.63-0.008-1.268-0.105-1.887c-0.346-2.18-1.578-3.564-3.752-4.104
			c-1.012-0.252-2.043-0.342-3.072-0.438c-0.568-0.053-0.818-0.247-0.754-0.822c0.025-0.223,0.021-0.452,0.002-0.676
			c-0.051-0.542,0.102-0.871,0.727-0.797c0.223,0.026,0.451,0.003,0.676,0.003c9.242,0,18.484,0,27.727,0
			c0.045,0,0.09-0.006,0.135,0.001c0.387,0.058,0.916-0.203,1.137,0.184c0.291,0.51,0.15,1.144,0.088,1.715
			c-0.045,0.427-0.486,0.324-0.773,0.352c-1.252,0.125-2.518,0.168-3.748,0.468c-0.523,0.127-1.039,0.291-1.551,0.461
			c-1.109,0.37-1.801,1.162-2.158,2.251c-0.428,1.295-0.602,2.633-0.602,3.993c-0.002,14.021-0.002,28.042,0.004,42.062
			c0,0.493,0.041,0.992,0.127,1.478c0.273,1.546,1.197,2.461,2.74,2.785c2.5,0.524,5.023,0.447,7.539,0.255
			c2.896-0.221,5.678-0.947,8.301-2.224c3.139-1.529,5.439-3.951,7.289-6.852c1.334-2.095,2.406-4.324,3.363-6.612
			c0.537-1.283,0.219-1.125,1.748-1.143C596.297,228.851,596.654,228.854,597.195,228.854z"/>
		<path fill-rule="evenodd" clip-rule="evenodd" fill="#040404" d="M513.787,127.024c0.65-0.722,1.273-1.467,1.953-2.16
			c2.652-2.703,5.783-4.423,9.648-4.556c2.646-0.091,5.215,0.271,7.555,1.615c1.783,1.025,3.037,2.514,3.75,4.456
			c0.852,2.321,1.064,4.739,1.07,7.18c0.016,6.944,0.004,13.889,0.01,20.833c0,0.629,0.027,1.263,0.102,1.887
			c0.166,1.399,0.914,2.316,2.312,2.656c0.35,0.085,0.691,0.207,1.047,0.256c0.625,0.087,0.912,0.336,0.885,1.047
			c-0.047,1.233,0.008,1.244-1.266,1.245c-5.998,0.003-11.996,0.001-17.992,0.001c-0.271,0-0.541-0.001-0.812-0.01
			c-0.25-0.008-0.447-0.118-0.459-0.384c-0.021-0.45-0.006-0.901-0.008-1.352c0-0.359,0.285-0.421,0.537-0.505
			c0.555-0.184,1.121-0.333,1.666-0.541c0.91-0.346,1.455-0.992,1.648-1.974c0.143-0.715,0.199-1.427,0.199-2.148
			c0.002-7.26-0.002-14.52,0.004-21.78c0-1.042-0.092-2.073-0.32-3.087c-0.596-2.646-2.711-3.978-5.367-3.444
			c-2.027,0.407-3.404,1.745-4.752,3.161c-0.873,0.918-1.289,1.909-1.275,3.253c0.074,7.214,0.035,14.43,0.037,21.645
			c0,0.766,0.037,1.524,0.17,2.287c0.188,1.097,0.816,1.776,1.811,2.16c0.42,0.161,0.852,0.299,1.291,0.388
			c0.576,0.116,0.809,0.381,0.803,1.008c-0.01,1.317,0.031,1.323-1.32,1.324c-6.133,0.002-12.266,0.001-18.398,0.001
			c-0.271,0-0.541,0.002-0.812-0.005c-0.331-0.009-0.478-0.203-0.486-0.517c-0.007-0.225,0.021-0.454-0.01-0.676
			c-0.089-0.649,0.139-1.014,0.825-1.102c0.442-0.058,0.879-0.196,1.304-0.338c1.319-0.439,2.104-1.368,2.321-2.729
			c0.112-0.708,0.146-1.436,0.147-2.154c0.01-8.478,0.009-16.955,0.002-25.433c-0.001-0.629-0.03-1.265-0.12-1.887
			c-0.196-1.364-0.899-2.336-2.28-2.72c-0.433-0.12-0.864-0.278-1.306-0.325c-0.746-0.079-0.931-0.47-0.903-1.169
			c0.044-1.151,0.004-1.162,1.206-1.162c4.734-0.004,9.47-0.004,14.205,0c1.098,0.001,1.107,0.011,1.113,1.085
			c0.01,1.531,0.002,3.061,0.002,4.591C513.611,126.971,513.699,126.998,513.787,127.024z"/>
		<path fill-rule="evenodd" clip-rule="evenodd" fill="#030303" d="M817.711,156.091c1.482,1.593,1.5,1.613-0.006,3.014
			c-3.012,2.806-6.512,4.119-10.65,3.333c-2.285-0.435-3.771-1.804-4.508-3.998c-0.17-0.508-0.307-1.026-0.457-1.537
			c-0.455-0.035-0.615,0.35-0.875,0.574c-3.471,3.012-7.428,4.898-12.064,5.18c-2.512,0.153-4.801-0.538-6.902-1.921
			c-1.879-1.238-2.98-2.97-3.365-5.164c-0.822-4.708,0.777-8.405,4.707-11.095c2.131-1.457,4.479-2.498,6.852-3.479
			c3.457-1.429,7.012-2.575,10.592-3.648c1.025-0.308,1.055-0.318,1.033-1.366c-0.047-2.386,0.168-4.778-0.129-7.158
			c-0.428-3.425-2.006-5.073-5.391-5.567c-1.43-0.209-2.875-0.211-4.293,0.167c-0.703,0.188-1.365,0.469-1.947,0.909
			c-1.186,0.897-1.352,2.1-0.467,3.298c0.135,0.181,0.295,0.341,0.438,0.516c1.691,2.067,1.992,4.435,0.812,6.388
			c-1.096,1.816-3.645,2.792-6.068,2.325c-3.234-0.624-5.025-3.022-4.734-6.344c0.246-2.822,1.551-5.043,3.84-6.687
			c2.977-2.137,6.352-3.147,9.965-3.418c4.449-0.333,8.791,0.069,12.988,1.753c4.057,1.629,6.168,4.654,6.703,8.886
			c0.143,1.115,0.211,2.239,0.209,3.369c-0.016,6.581-0.01,13.163-0.006,19.745c0,0.45-0.012,0.908,0.064,1.347
			c0.27,1.544,1.512,2.051,2.793,1.167C817.131,156.482,817.316,156.131,817.711,156.091z M801.754,140.142
			c-3.18,0.813-6.066,2.17-8.262,4.724c-1.957,2.274-2.527,4.931-1.91,7.84c0.641,3.01,2.898,4.317,5.871,3.477
			c1.543-0.436,2.666-1.445,3.756-2.542c0.514-0.516,0.727-1.055,0.719-1.792c-0.035-3.561-0.014-7.123-0.018-10.685
			C801.91,140.854,801.973,140.533,801.754,140.142z"/>
		<path fill-rule="evenodd" clip-rule="evenodd" fill="#030303" d="M761.006,244.044c-0.455,0.049-0.59,0.312-0.783,0.489
			c-2.973,2.713-6.428,4.451-10.4,5.106c-3.092,0.51-5.996,0.043-8.656-1.734c-1.832-1.225-2.949-2.911-3.344-5.032
			c-0.822-4.432,0.492-8.091,4.135-10.836c1.703-1.284,3.611-2.204,5.541-3.075c3.906-1.763,7.969-3.092,12.064-4.332
			c0.301-0.091,0.6-0.205,0.906-0.264c0.377-0.072,0.547-0.274,0.533-0.648c-0.09-2.744,0.23-5.5-0.211-8.232
			c-0.49-3.019-1.984-4.475-5.016-5.004c-1.484-0.259-2.955-0.266-4.426,0.064c-0.803,0.18-1.543,0.505-2.189,1.011
			c-1.092,0.854-1.26,2.102-0.412,3.205c0.52,0.679,1.102,1.303,1.455,2.102c1.547,3.502-0.65,7.068-4.473,7.226
			c-0.674,0.028-1.357,0.055-2.02-0.111c-3.158-0.797-4.707-2.875-4.49-6.264c0.186-2.886,1.584-5.114,3.91-6.786
			c2.703-1.944,5.779-2.95,9.041-3.285c4.34-0.445,8.641-0.196,12.801,1.286c1.105,0.394,2.172,0.881,3.168,1.498
			c2.785,1.719,4.031,4.383,4.52,7.49c0.197,1.248,0.258,2.507,0.256,3.771c-0.002,6.626-0.002,13.252,0,19.877
			c0.002,0.493-0.045,0.99,0.131,1.471c0.443,1.211,1.51,1.589,2.592,0.894c0.332-0.213,0.627-0.484,0.932-0.724
			c1.543,1.594,1.551,1.601,0.062,3.042c-2.633,2.545-5.758,3.779-9.439,3.549c-2.994-0.187-4.971-1.71-5.85-4.565
			C761.225,244.849,761.123,244.458,761.006,244.044z M760.713,227.29c-2.871,0.744-5.416,1.908-7.527,3.917
			c-2.492,2.372-3.338,5.276-2.703,8.618c0.447,2.35,2.301,4.474,5.719,3.569c1.588-0.42,2.785-1.399,3.898-2.553
			c0.539-0.56,0.768-1.135,0.76-1.916c-0.037-3.245-0.01-6.491-0.021-9.736C760.836,228.61,760.93,228.022,760.713,227.29z"/>
		<path fill-rule="evenodd" clip-rule="evenodd" fill="#030303" d="M506.569,227.238c-3.382,0-6.764-0.005-10.146,0.003
			c-0.963,0.002-0.993,0.022-0.918,0.972c0.286,3.57,0.941,7.049,2.591,10.279c2.966,5.809,9.218,5.97,13.152,3.503
			c1.542-0.966,2.835-2.214,4.075-3.528c0.25-0.264,0.453-0.804,0.945-0.579c0.566,0.258,1.133,0.559,1.564,1.032
			c0.148,0.163,0,0.34-0.092,0.482c-2.764,4.294-6.089,7.946-11.139,9.575c-10.48,3.379-20.881-3.545-22.74-12.941
			c-1.05-5.303-1.252-10.592,0.394-15.773c2.149-6.773,6.741-11.082,13.771-12.505c8.246-1.668,15.993,3.097,18.347,11.17
			c0.697,2.387,1.07,4.835,1.211,7.318c0.055,0.963,0.061,0.983-0.871,0.986c-3.02,0.01-6.042,0.004-9.063,0.004
			C507.291,227.238,506.931,227.238,506.569,227.238z M501.042,223.989c1.62,0,3.241,0.009,4.862-0.003
			c1-0.007,1.048-0.023,1.005-1.066c-0.075-1.841-0.172-3.683-0.341-5.518c-0.119-1.296-0.316-2.592-0.726-3.838
			c-0.423-1.282-1.106-2.371-2.382-2.96c-2.521-1.164-5.31-0.165-6.516,2.333c-0.393,0.812-0.646,1.678-0.834,2.56
			c-0.529,2.471-0.81,4.969-0.833,7.496c-0.01,0.969-0.014,0.984,0.901,0.992C497.8,223.998,499.421,223.989,501.042,223.989z"/>
		<path fill-rule="evenodd" clip-rule="evenodd" fill="#030303" d="M648.762,151.797c-1.668,2.779-3.609,5.122-5.996,7.097
			c-5.363,4.438-14.223,5.353-20.914,0.632c-3.588-2.532-6.025-5.786-7.053-10.045c-1.357-5.627-1.42-11.257,0.352-16.812
			c2.195-6.89,8.303-11.691,15.293-12.321c7.387-0.666,14.75,3.734,16.871,11.975c0.572,2.231,0.885,4.507,1.066,6.8
			c0.076,0.955,0.055,0.978-0.906,0.981c-3.518,0.01-7.035,0.003-10.551,0.004c-3.248,0-6.494-0.005-9.742,0.003
			c-0.947,0.003-0.979,0.023-0.906,0.979c0.248,3.254,0.84,6.437,2.189,9.43c1.195,2.659,2.996,4.726,5.938,5.493
			c2.709,0.707,5.268,0.254,7.652-1.202c1.557-0.951,2.812-2.249,4.074-3.537c0.689-0.704,0.689-0.71,1.539-0.194
			C648.01,151.287,648.338,151.518,648.762,151.797z M631.721,136.857c1.533,0,3.066,0.001,4.6,0
			c1.408-0.001,1.35,0.141,1.342-1.281c-0.016-2.436-0.199-4.86-0.596-7.264c-0.16-0.978-0.395-1.942-0.828-2.843
			c-0.561-1.161-1.447-2.007-2.703-2.263c-2.557-0.521-4.74,0.035-5.957,2.888c-0.211,0.494-0.373,1.015-0.512,1.534
			c-0.729,2.714-0.959,5.494-1.039,8.29c-0.025,0.917-0.006,0.93,0.961,0.937C628.566,136.865,630.145,136.857,631.721,136.857z"/>
		<path fill-rule="evenodd" clip-rule="evenodd" fill="#030303" d="M638.328,227.238c0.117,3.382,0.697,6.509,1.838,9.523
			c0.285,0.755,0.639,1.495,1.047,2.19c2.498,4.262,7.314,5.721,11.807,3.625c1.924-0.897,3.412-2.325,4.867-3.812
			c1.1-1.126,1.09-1.094,2.398-0.217c0.51,0.34,0.492,0.603,0.188,1.072c-1.186,1.819-2.5,3.526-4.047,5.055
			c-3.852,3.809-8.516,5.436-13.883,5.121c-3.836-0.226-7.092-1.851-10.051-4.208c-2.902-2.312-4.713-5.318-5.592-8.866
			c-1.287-5.202-1.451-10.47-0.021-15.649c1.994-7.229,6.668-11.894,14.107-13.32c8.271-1.585,15.908,3.089,18.24,11.141
			c0.68,2.345,1.049,4.749,1.215,7.181c0.08,1.155,0.059,1.164-1.16,1.165c-6.447,0.003-12.895,0.001-19.342,0.001
			C639.449,227.238,638.961,227.238,638.328,227.238z M643.859,223.989c1.621,0,3.242,0.007,4.863-0.003
			c1.076-0.006,1.107-0.019,1.062-1.011c-0.076-1.706-0.143-3.416-0.309-5.115c-0.158-1.608-0.348-3.221-0.951-4.748
			c-0.691-1.757-1.932-2.758-3.85-2.9c-2.021-0.15-3.615,0.519-4.654,2.321c-0.5,0.867-0.789,1.814-1.014,2.779
			c-0.594,2.551-0.809,5.15-0.902,7.761c-0.031,0.875-0.008,0.903,0.893,0.911C640.617,224,642.238,223.988,643.859,223.989z"/>
		<path fill-rule="evenodd" clip-rule="evenodd" fill="#020202" d="M617.639,216.319c0,7.887,0,15.774,0.002,23.662
			c0,0.99,0.064,1.977,0.154,2.965c0.133,1.466,0.881,2.417,2.225,2.937c0.418,0.163,0.844,0.314,1.275,0.439
			c0.447,0.129,0.625,0.37,0.643,0.864c0.049,1.417,0.074,1.426-1.35,1.426c-6.039,0.002-12.078,0.001-18.117,0.001
			c-0.227,0-0.451-0.011-0.676,0c-0.436,0.021-0.691-0.129-0.666-0.611c0.016-0.269,0.029-0.544-0.004-0.81
			c-0.061-0.504,0.18-0.744,0.639-0.85c0.617-0.143,1.203-0.376,1.764-0.67c0.893-0.469,1.443-1.187,1.637-2.189
			c0.191-0.979,0.25-1.964,0.25-2.957c0-14.332,0-28.665,0-42.997c0-0.857-0.074-1.705-0.182-2.556
			c-0.16-1.255-0.846-2.056-1.986-2.502c-0.502-0.196-1.012-0.381-1.535-0.507c-0.422-0.103-0.562-0.302-0.592-0.737
			c-0.1-1.546-0.119-1.546,1.479-1.546c4.598-0.001,9.195-0.002,13.793,0c1.35,0.001,1.248-0.129,1.248,1.217
			C617.641,199.373,617.639,207.846,617.639,216.319z"/>
		<path fill-rule="evenodd" clip-rule="evenodd" fill="#020202" d="M753.367,140.287c0-4.642,0.002-9.284-0.002-13.926
			c-0.002-1.229-0.012-1.231-1.271-1.239c-0.857-0.006-1.713,0.001-2.57-0.004c-0.215-0.001-0.457,0.042-0.617-0.161
			c-0.279-0.355-0.02-2.297,0.377-2.656c0.867-0.787,1.77-1.535,2.627-2.33c4.018-3.722,7.5-7.902,10.572-12.429
			c0.58-0.855,1.586-1.203,2.525-0.914c0.277,0.085,0.324,0.27,0.326,0.504c0.004,0.315,0.004,0.631,0.004,0.946
			c0,4.056,0.004,8.112-0.004,12.168c-0.002,1.108,0.025,1.023,1.045,1.021c2.117-0.004,4.236,0.021,6.354-0.014
			c0.68-0.011,1,0.16,0.945,0.899c-0.055,0.717-0.055,1.445,0,2.162c0.051,0.697-0.271,0.825-0.877,0.816
			c-1.938-0.027-3.877-0.01-5.814-0.01c-0.316,0-0.633,0.017-0.947-0.002c-0.504-0.032-0.764,0.15-0.705,0.692
			c0.025,0.223,0.004,0.45,0.004,0.676c0,8.067,0,16.135,0,24.202c0,1.038,0.027,2.073,0.33,3.078
			c0.799,2.651,3.566,3.428,5.654,1.58c0.82-0.725,1.393-1.648,1.961-2.569c0.619-1.003,0.619-1.003,1.713-0.443
			c0.201,0.103,0.402,0.204,0.604,0.305c0.25,0.126,0.283,0.315,0.172,0.556c-2.084,4.528-4.99,8.152-10.213,9.172
			c-2.393,0.468-4.764,0.295-7.039-0.598c-3.061-1.201-4.713-3.515-5.062-6.748c-0.119-1.116-0.084-2.25-0.086-3.375
			C753.361,147.859,753.367,144.073,753.367,140.287z"/>
		<path fill-rule="evenodd" clip-rule="evenodd" fill="#030303" d="M652.277,121.267c4.383,0,8.709,0,13.035,0
			c0.812,0,1.623-0.009,2.436,0.002c0.961,0.014,0.977,0.022,0.984,0.954c0.014,1.578,0.004,3.156,0.004,4.733
			c0,0.253,0,0.506,0,1.091c1.309-1.517,2.344-2.798,3.533-3.934c0.785-0.748,1.584-1.478,2.48-2.084
			c2.186-1.477,4.611-2.108,7.191-1.578c4.092,0.841,6.289,3.917,5.316,8.348c-0.447,2.034-1.75,3.449-3.836,3.954
			c-2.217,0.536-4.094-0.164-5.637-1.787c-0.713-0.75-1.324-1.596-2.043-2.341c-1.029-1.07-1.707-1.159-2.982-0.376
			c-2.062,1.266-3.115,3.199-3.438,5.545c-0.135,0.978-0.195,1.973-0.199,2.96c-0.02,5.049-0.016,10.098-0.004,15.147
			c0.002,1.395,0.098,2.782,0.355,4.162c0.27,1.46,1.127,2.299,2.514,2.685c0.783,0.218,1.576,0.37,2.383,0.478
			c1.084,0.146,1.082,0.167,1.068,1.244c-0.012,0.983-0.012,1.009-0.945,1.01c-7.168,0.007-14.336-0.005-21.504,0.018
			c-0.672,0.002-0.855-0.224-0.836-0.854c0.049-1.536-0.078-1.231,1.131-1.485c2.373-0.498,3.148-1.329,3.352-3.711
			c0.107-1.254,0.18-2.516,0.182-3.775c0.016-7.619,0.006-15.238,0.01-22.856c0-0.723-0.086-1.435-0.174-2.152
			c-0.191-1.533-1.035-2.444-2.504-2.825c-0.131-0.034-0.258-0.083-0.389-0.116C652.061,123.291,652.061,123.292,652.277,121.267z"
			/>
		<path fill-rule="evenodd" clip-rule="evenodd" fill="#030303" d="M718.904,120.568c0,1.675,0,3.385,0,5.095
			c0,2.165-0.027,4.33,0.016,6.494c0.014,0.681-0.223,0.894-0.852,0.816c-0.223-0.028-0.455-0.03-0.676,0
			c-0.562,0.077-0.814-0.213-0.947-0.709c-0.271-1.005-0.705-1.947-1.182-2.868c-0.799-1.54-1.859-2.884-3.189-3.987
			c-2.205-1.826-4.74-2.532-7.574-2.02c-1.953,0.353-3.223,1.527-3.861,3.378c-0.623,1.799-0.133,3.36,1.098,4.744
			c1.068,1.203,2.414,2.022,3.828,2.731c1.812,0.906,3.645,1.775,5.469,2.655c1.342,0.646,2.631,1.379,3.908,2.143
			c6.699,4.002,7.385,11.606,4.111,17.191c-2.363,4.034-5.904,6.037-10.494,6.4c-3.219,0.254-6.268-0.459-9.275-1.479
			c-0.768-0.26-1.525-0.55-2.299-0.796c-1.197-0.382-1.824-0.164-2.561,0.858c-0.131,0.183-0.238,0.383-0.367,0.567
			c-0.201,0.287-0.242,0.766-0.619,0.829c-0.525,0.087-1.076,0.039-1.613,0.027c-0.215-0.004-0.297-0.173-0.303-0.371
			c-0.01-0.225-0.014-0.45-0.014-0.676c0-4.059-0.002-8.117,0.002-12.176c0.002-1.133,0.012-1.133,1.203-1.136
			c0.18-0.001,0.363,0.021,0.541-0.004c0.508-0.072,0.717,0.183,0.832,0.644c0.207,0.829,0.42,1.661,0.699,2.467
			c1.586,4.59,4.82,7.269,9.568,8.146c1.395,0.258,2.793,0.151,4.158-0.191c4.289-1.073,4.797-6.297,2.48-8.806
			c-0.652-0.706-1.41-1.267-2.26-1.693c-2.336-1.171-4.676-2.33-7.023-3.476c-2.193-1.071-4.285-2.285-6.156-3.879
			c-5.357-4.567-5.012-12.621-0.736-17.198c2.205-2.36,4.924-3.535,8.088-3.896c2.6-0.297,5.117,0.04,7.613,0.725
			c0.998,0.274,1.994,0.56,3.004,0.793c1.334,0.31,2.635,0.436,3.322-1.151c0.131-0.302,0.371-0.37,0.656-0.349
			C717.941,120.445,718.398,120.304,718.904,120.568z"/>
		<path fill-rule="evenodd" clip-rule="evenodd" fill="#030303" d="M610.125,121.266c0,0.49-0.041,0.807,0.01,1.109
			c0.125,0.778-0.174,1.111-0.961,1.247c-1.275,0.221-2.154,1.065-2.832,2.129c-0.707,1.108-1.188,2.325-1.68,3.533
			c-4.361,10.715-8.715,21.433-13.074,32.15c-0.498,1.226-1.061,1.497-2.369,1.244c-0.463-0.09-0.525-0.439-0.656-0.76
			c-0.783-1.917-1.559-3.837-2.342-5.754c-3.25-7.96-6.486-15.925-9.764-23.874c-0.893-2.163-1.898-4.277-3.018-6.337
			c-0.701-1.289-1.568-2.308-3.145-2.459c-0.252-0.024-0.59-0.033-0.582-0.413c0.01-0.571-0.209-1.201,0.15-1.692
			c0.213-0.291,0.682-0.117,1.033-0.118c5.229-0.008,10.459-0.005,15.688-0.005c1.574,0,3.148,0,4.738,0
			c0.215,0.724,0.135,1.389,0.078,2.09c-0.73,0.103-1.441,0.192-2.148,0.304c-2.283,0.364-2.83,1.277-2.041,3.48
			c0.469,1.313,0.994,2.607,1.504,3.906c1.676,4.274,3.357,8.547,5.037,12.82c0.066,0.168,0.121,0.34,0.195,0.503
			c0.145,0.312,0.18,0.747,0.686,0.689c0.398-0.045,0.438-0.402,0.551-0.687c1.188-3.015,2.389-6.026,3.561-9.048
			c0.941-2.433,2.053-4.803,2.727-7.337c0.174-0.661,0.287-1.322,0.252-2.001c-0.064-1.257-0.467-1.783-1.668-2.155
			c-0.777-0.241-1.584-0.365-2.393-0.379c-0.521-0.009-0.752-0.165-0.703-0.696c0.023-0.269,0.025-0.543,0-0.811
			c-0.049-0.542,0.205-0.693,0.715-0.687c1.623,0.022,3.246,0.008,4.869,0.008C605.02,121.266,607.496,121.266,610.125,121.266z"/>
		<path fill-rule="evenodd" clip-rule="evenodd" fill="#050505" d="M680.854,226.152c0,5.093,0,10.187,0,15.28
			c0,0.27-0.004,0.541,0,0.812c0.055,2.637,0.559,3.294,3.062,4.052c0.318,0.096,0.812,0.023,0.861,0.491
			c0.055,0.531,0,1.076-0.039,1.612c-0.006,0.075-0.191,0.179-0.305,0.196c-0.221,0.035-0.449,0.021-0.676,0.021
			c-6.219,0-12.439,0.004-18.66-0.008c-0.33,0-0.824,0.205-0.957-0.235c-0.166-0.553-0.129-1.159,0.006-1.733
			c0.02-0.083,0.219-0.131,0.34-0.179c0.125-0.049,0.256-0.09,0.389-0.116c2.188-0.428,3.504-1.077,3.609-4.713
			c0.094-3.198,0.021-6.4,0.021-9.601c0-5.364,0.002-10.728,0-16.092c-0.002-0.766-0.041-1.522-0.178-2.284
			c-0.232-1.297-0.996-2.085-2.186-2.509c-0.465-0.166-0.947-0.293-1.432-0.391c-0.479-0.097-0.639-0.333-0.656-0.831
			c-0.051-1.465-0.078-1.466,1.432-1.467c4.732,0,9.465-0.003,14.199,0.002c1.156,0.001,1.166,0.012,1.166,1.196
			C680.855,215.153,680.854,220.652,680.854,226.152z"/>
		<path fill-rule="evenodd" clip-rule="evenodd" fill="#020202" d="M562.23,138.804c0,5.184,0,10.368,0,15.552
			c0,0.405-0.016,0.813,0.023,1.216c0.209,2.235,0.744,2.876,2.887,3.52c0.371,0.111,0.924,0.024,1.025,0.486
			c0.111,0.513,0.037,1.071,0.016,1.608c-0.01,0.209-0.201,0.279-0.393,0.285c-0.314,0.009-0.631,0.013-0.945,0.013
			c-5.996,0-11.992,0-17.986,0c-0.316,0-0.633,0-0.947-0.01c-0.26-0.008-0.434-0.155-0.445-0.407
			c-0.023-0.449-0.012-0.901-0.002-1.352c0.004-0.198,0.131-0.329,0.316-0.387c0.213-0.068,0.432-0.121,0.65-0.177
			c2.346-0.599,3.055-1.369,3.396-3.762c0.088-0.622,0.109-1.257,0.111-1.886c0.006-8.205,0.004-16.409,0.006-24.613
			c0-0.722-0.074-1.434-0.166-2.151c-0.186-1.47-0.99-2.37-2.371-2.802c-0.43-0.134-0.859-0.273-1.297-0.366
			c-0.467-0.098-0.652-0.318-0.674-0.822c-0.062-1.476-0.088-1.479,1.432-1.48c4.777-0.001,9.555-0.003,14.334,0.002
			c1.008,0.001,1.025,0.015,1.025,1.035C562.232,127.804,562.23,133.304,562.23,138.804z"/>
		<path fill-rule="evenodd" clip-rule="evenodd" fill="#030303" d="M741.301,138.704c0,4.911,0,9.822,0,14.733
			c0.002,0.991,0.068,1.975,0.189,2.961c0.156,1.266,0.848,2.045,2.023,2.439c0.383,0.128,0.771,0.245,1.164,0.336
			c0.441,0.102,0.676,0.282,0.697,0.807c0.064,1.483,0.078,1.503-1.402,1.503c-5.994,0.001-11.986,0-17.979,0
			c-0.314,0-0.631,0-0.945-0.01c-0.258-0.008-0.438-0.149-0.449-0.402c-0.023-0.449-0.02-0.901-0.004-1.351
			c0.012-0.346,0.309-0.404,0.564-0.479c0.387-0.114,0.779-0.214,1.17-0.317c1.48-0.39,2.234-1.416,2.516-2.863
			c0.182-0.932,0.227-1.875,0.229-2.82c0.002-8.02,0.006-16.04-0.008-24.06c0-0.807-0.094-1.615-0.172-2.42
			c-0.141-1.466-0.965-2.378-2.344-2.824c-0.256-0.083-0.51-0.174-0.77-0.246c-1.158-0.32-1.473-0.857-1.189-2.013
			c0.061-0.257,0.191-0.394,0.445-0.404c0.271-0.011,0.541-0.007,0.811-0.007c4.732,0,9.463-0.001,14.193,0.001
			c1.277,0,1.262-0.161,1.262,1.216C741.299,127.891,741.301,133.297,741.301,138.704z"/>
		<path fill-rule="evenodd" clip-rule="evenodd" fill="#030303" d="M741.904,108c-0.004,3.816-2.953,6.75-6.766,6.731
			c-3.814-0.02-6.691-2.96-6.666-6.815c0.023-3.721,2.98-6.684,6.684-6.694C738.912,101.211,741.908,104.222,741.904,108z"/>
		<path fill-rule="evenodd" clip-rule="evenodd" fill="#030303" d="M562.771,108.051c-0.02,3.811-2.973,6.71-6.805,6.68
			c-3.791-0.03-6.678-3.02-6.629-6.863c0.049-3.71,3.037-6.625,6.742-6.656C559.736,101.181,563.025,104.532,562.771,108.051z"/>
	</g>
</g>
<path fill-rule="evenodd" clip-rule="evenodd" fill="#710249" d="M89.718,174.001c0.021-0.042,0.042-0.085,0.063-0.128
	c-0.02,0.047-0.04,0.095-0.06,0.144C89.722,174.018,89.718,174.001,89.718,174.001z"/>
</svg>
