<?xml version="1.0" encoding="UTF-8" standalone="no"?>
<!DOCTYPE svg PUBLIC "-//W3C//DTD SVG 1.1//EN"
 "http://www.w3.org/Graphics/SVG/1.1/DTD/svg11.dtd">
<!-- Generated by graphviz version 12.2.1 (20241206.2353)
 -->
<!-- Title: G Pages: 1 -->
<svg width="1232pt" height="169pt"
 viewBox="0.00 0.00 1231.98 168.80" xmlns="http://www.w3.org/2000/svg" xmlns:xlink="http://www.w3.org/1999/xlink">
<g id="graph0" class="graph" transform="scale(1 1) rotate(0) translate(14.4 154.4)">
<title>G</title>
<polygon fill="white" stroke="none" points="-14.4,14.4 -14.4,-154.4 1217.58,-154.4 1217.58,14.4 -14.4,14.4"/>
<!-- edgeNode -->
<g id="node1" class="node">
<title>edgeNode</title>
<path fill="#fef3c7" stroke="#334155" d="M90.78,-95.51C90.78,-95.51 12,-95.51 12,-95.51 6,-95.51 0,-89.51 0,-83.51 0,-83.51 0,-70.49 0,-70.49 0,-64.49 6,-58.49 12,-58.49 12,-58.49 90.78,-58.49 90.78,-58.49 96.78,-58.49 102.78,-64.49 102.78,-70.49 102.78,-70.49 102.78,-83.51 102.78,-83.51 102.78,-89.51 96.78,-95.51 90.78,-95.51"/>
<text text-anchor="middle" x="51.39" y="-78.35" font-family="Helvetica,sans-Serif" font-size="12.00">Edge simulator /</text>
<text text-anchor="middle" x="51.39" y="-65.6" font-family="Helvetica,sans-Serif" font-size="12.00">real runtime</text>
</g>
<!-- broker -->
<g id="node2" class="node">
<title>broker</title>
<path fill="#dcfce7" stroke="#334155" d="M324.06,-95C324.06,-95 241.53,-95 241.53,-95 235.53,-95 229.53,-89 229.53,-83 229.53,-83 229.53,-71 229.53,-71 229.53,-65 235.53,-59 241.53,-59 241.53,-59 324.06,-59 324.06,-59 330.06,-59 336.06,-65 336.06,-71 336.06,-71 336.06,-83 336.06,-83 336.06,-89 330.06,-95 324.06,-95"/>
<text text-anchor="middle" x="282.8" y="-71.97" font-family="Helvetica,sans-Serif" font-size="12.00">Mosquitto broker</text>
</g>
<!-- edgeNode&#45;&gt;broker -->
<g id="edge1" class="edge">
<title>edgeNode&#45;&gt;broker</title>
<path fill="none" stroke="#475569" d="M103.03,-77C103.03,-77 219.79,-77 219.79,-77"/>
<polygon fill="#475569" stroke="#475569" points="219.79,-79.8 227.79,-77 219.79,-74.2 219.79,-79.8"/>
<text text-anchor="middle" x="166.16" y="-130.5" font-family="Helvetica,sans-Serif" font-size="10.00">PUBLISH status</text>
<text text-anchor="middle" x="166.16" y="-120" font-family="Helvetica,sans-Serif" font-size="10.00">metrics</text>
<text text-anchor="middle" x="166.16" y="-109.5" font-family="Helvetica,sans-Serif" font-size="10.00">classification</text>
<text text-anchor="middle" x="166.16" y="-99" font-family="Helvetica,sans-Serif" font-size="10.00">event</text>
<text text-anchor="middle" x="166.16" y="-88.5" font-family="Helvetica,sans-Serif" font-size="10.00">logs</text>
<text text-anchor="middle" x="166.16" y="-78" font-family="Helvetica,sans-Serif" font-size="10.00">help</text>
</g>
<!-- backend -->
<g id="node3" class="node">
<title>backend</title>
<path fill="#dbeafe" stroke="#334155" d="M801.87,-134C801.87,-134 672.09,-134 672.09,-134 666.09,-134 660.09,-128 660.09,-122 660.09,-122 660.09,-110 660.09,-110 660.09,-104 666.09,-98 672.09,-98 672.09,-98 801.87,-98 801.87,-98 807.87,-98 813.87,-104 813.87,-110 813.87,-110 813.87,-122 813.87,-122 813.87,-128 807.87,-134 801.87,-134"/>
<text text-anchor="middle" x="736.98" y="-110.97" font-family="Helvetica,sans-Serif" font-size="12.00">FastAPI MQTT subscriber</text>
</g>
<!-- broker&#45;&gt;backend -->
<g id="edge2" class="edge">
<title>broker&#45;&gt;backend</title>
<path fill="none" stroke="#475569" d="M283.18,-95.13C283.18,-105.31 283.18,-116 283.18,-116 283.18,-116 650.23,-116 650.23,-116"/>
<polygon fill="#475569" stroke="#475569" points="650.23,-118.8 658.23,-116 650.23,-113.2 650.23,-118.8"/>
<text text-anchor="middle" x="427.94" y="-117" font-family="Helvetica,sans-Serif" font-size="10.00">SUB arduino/+/#</text>
</g>
<!-- ui -->
<g id="node6" class="node">
<title>ui</title>
<path fill="#e2e8f0" stroke="#334155" d="M621.09,-55C621.09,-55 531.81,-55 531.81,-55 525.81,-55 519.81,-49 519.81,-43 519.81,-43 519.81,-31 519.81,-31 519.81,-25 525.81,-19 531.81,-19 531.81,-19 621.09,-19 621.09,-19 627.09,-19 633.09,-25 633.09,-31 633.09,-31 633.09,-43 633.09,-43 633.09,-49 627.09,-55 621.09,-55"/>
<text text-anchor="middle" x="576.45" y="-31.98" font-family="Helvetica,sans-Serif" font-size="12.00">Next.js dashboard</text>
</g>
<!-- broker&#45;&gt;ui -->
<g id="edge7" class="edge">
<title>broker&#45;&gt;ui</title>
<path fill="none" stroke="#475569" d="M336.27,-72C420.89,-72 576.18,-72 576.18,-72 576.18,-72 576.18,-64.83 576.18,-64.83"/>
<polygon fill="#475569" stroke="#475569" points="578.98,-64.83 576.18,-56.83 573.38,-64.83 578.98,-64.83"/>
<text text-anchor="middle" x="427.94" y="-50" font-family="Helvetica,sans-Serif" font-size="10.00">MQTT WebSocket live update</text>
</g>
<!-- db -->
<g id="node4" class="node">
<title>db</title>
<path fill="#ede9fe" stroke="#334155" d="M1191.18,-85C1191.18,-85 1133.4,-85 1133.4,-85 1127.4,-85 1121.4,-79 1121.4,-73 1121.4,-73 1121.4,-61 1121.4,-61 1121.4,-55 1127.4,-49 1133.4,-49 1133.4,-49 1191.18,-49 1191.18,-49 1197.18,-49 1203.18,-55 1203.18,-61 1203.18,-61 1203.18,-73 1203.18,-73 1203.18,-79 1197.18,-85 1191.18,-85"/>
<text text-anchor="middle" x="1162.29" y="-61.98" font-family="Helvetica,sans-Serif" font-size="12.00">PostgreSQL</text>
</g>
<!-- backend&#45;&gt;db -->
<g id="edge3" class="edge">
<title>backend&#45;&gt;db</title>
<path fill="none" stroke="#475569" d="M813.98,-116C936.51,-116 1162.18,-116 1162.18,-116 1162.18,-116 1162.18,-94.76 1162.18,-94.76"/>
<polygon fill="#475569" stroke="#475569" points="1164.98,-94.76 1162.18,-86.76 1159.38,-94.76 1164.98,-94.76"/>
<text text-anchor="middle" x="915.89" y="-127.5" font-family="Helvetica,sans-Serif" font-size="10.00">INSERT mqtt_messages</text>
<text text-anchor="middle" x="915.89" y="-117" font-family="Helvetica,sans-Serif" font-size="10.00">UPSERT latest state</text>
</g>
<!-- api -->
<g id="node5" class="node">
<title>api</title>
<path fill="#e2e8f0" stroke="#334155" d="M978.9,-36C978.9,-36 852.87,-36 852.87,-36 846.87,-36 840.87,-30 840.87,-24 840.87,-24 840.87,-12 840.87,-12 840.87,-6 846.87,0 852.87,0 852.87,0 978.9,0 978.9,0 984.9,0 990.9,-6 990.9,-12 990.9,-12 990.9,-24 990.9,-24 990.9,-30 984.9,-36 978.9,-36"/>
<text text-anchor="middle" x="915.89" y="-12.97" font-family="Helvetica,sans-Serif" font-size="12.00">/api/dashboard/bootstrap</text>
</g>
<!-- api&#45;&gt;db -->
<g id="edge5" class="edge">
<title>api&#45;&gt;db</title>
<path fill="none" stroke="#475569" d="M991.12,-18C1063.55,-18 1162.18,-18 1162.18,-18 1162.18,-18 1162.18,-39.24 1162.18,-39.24"/>
<polygon fill="#475569" stroke="#475569" points="1159.38,-39.24 1162.18,-47.24 1164.98,-39.24 1159.38,-39.24"/>
<text text-anchor="middle" x="1056.15" y="-50" font-family="Helvetica,sans-Serif" font-size="10.00">read history/state</text>
</g>
<!-- api&#45;&gt;ui -->
<g id="edge6" class="edge">
<title>api&#45;&gt;ui</title>
<path fill="none" stroke="#475569" d="M840.55,-24.67C840.55,-24.67 642.89,-24.67 642.89,-24.67"/>
<polygon fill="#475569" stroke="#475569" points="642.89,-21.87 634.89,-24.67 642.89,-27.47 642.89,-21.87"/>
<text text-anchor="middle" x="736.98" y="-1" font-family="Helvetica,sans-Serif" font-size="10.00">normalized dashboard state</text>
</g>
<!-- ui&#45;&gt;api -->
<g id="edge4" class="edge">
<title>ui&#45;&gt;api</title>
<path fill="none" stroke="#475569" d="M633.26,-30.33C633.26,-30.33 830.88,-30.33 830.88,-30.33"/>
<polygon fill="#475569" stroke="#475569" points="830.88,-33.13 838.88,-30.33 830.88,-27.53 830.88,-33.13"/>
<text text-anchor="middle" x="736.98" y="-57" font-family="Helvetica,sans-Serif" font-size="10.00">GET bootstrap</text>
</g>
</g>
</svg>
